<?xml version="1.0" encoding="UTF-8"?>
<svg version="1.1" xmlns="http://www.w3.org/2000/svg" width="390" height="280">
<path d="M0 0 C128.7 0 257.4 0 390 0 C390 92.4 390 184.8 390 280 C261.3 280 132.6 280 0 280 C0 187.6 0 95.2 0 0 Z " fill="#FEFEFE" transform="translate(0,0)"/>
<path d="M0 0 C7.28809376 6.10624072 13.61448963 12.82160173 18.45703125 21.05859375 C18.45703125 21.71859375 18.45703125 22.37859375 18.45703125 23.05859375 C20.43703125 22.39859375 22.41703125 21.73859375 24.45703125 21.05859375 C22.61946891 29.48448935 19.98580599 37.19207614 16.45703125 45.05859375 C12.82973336 44.44647053 9.20571582 43.81672823 5.58203125 43.18359375 C4.54949219 43.00957031 3.51695312 42.83554688 2.453125 42.65625 C1.46699219 42.48222656 0.48085937 42.30820313 -0.53515625 42.12890625 C-1.4463623 41.97180176 -2.35756836 41.81469727 -3.29638672 41.65283203 C-5.54296875 41.05859375 -5.54296875 41.05859375 -7.54296875 39.05859375 C-7.54296875 37.73859375 -7.54296875 36.41859375 -7.54296875 35.05859375 C-14.9646259 22.14825126 -29.1820034 14.42800479 -43.140625 10.58203125 C-46.9309149 9.75617947 -50.67756374 9.37031996 -54.54296875 9.05859375 C-54.54296875 11.69859375 -54.54296875 14.33859375 -54.54296875 17.05859375 C-53.32609375 16.97609375 -52.10921875 16.89359375 -50.85546875 16.80859375 C-38.53422716 16.86671281 -28.67786132 22.48141869 -19.79296875 30.55859375 C-19.05046875 31.38359375 -18.30796875 32.20859375 -17.54296875 33.05859375 C-17.0634375 33.54585937 -16.58390625 34.033125 -16.08984375 34.53515625 C-7.22757318 43.97929307 -4.08280688 56.26076736 -4.27734375 68.921875 C-4.71929773 74.14083155 -6.08563091 79.04474749 -7.54296875 84.05859375 C-7.88256547 85.39034559 -8.21853646 86.72306667 -8.54296875 88.05859375 C-6.56296875 89.04859375 -4.58296875 90.03859375 -2.54296875 91.05859375 C-2.41019531 90.34316406 -2.27742187 89.62773437 -2.140625 88.890625 C-1.54296875 86.05859375 -1.54296875 86.05859375 -0.7890625 83.5078125 C3.04966879 70.39678341 2.20217615 58.0774308 -1.54296875 45.05859375 C5.56080798 46.07651298 12.53214558 47.15764474 19.45703125 49.05859375 C19.57820312 48.47851562 19.699375 47.8984375 19.82421875 47.30078125 C20.79438599 42.77830933 21.89100908 38.42108409 23.45703125 34.05859375 C28.61791217 38.30264196 29.58516467 45.74232532 30.45703125 52.05859375 C32.42469783 78.4039382 27.94026478 101.31663268 10.95703125 122.12109375 C-4.00259982 139.43978514 -23.09736821 148.84766878 -45.54296875 152.05859375 C-47.16691623 152.12067125 -48.79302172 152.14571416 -50.41796875 152.12109375 C-51.19914062 152.11207031 -51.9803125 152.10304687 -52.78515625 152.09375 C-53.65527344 152.07634766 -53.65527344 152.07634766 -54.54296875 152.05859375 C-54.54296875 154.03859375 -54.54296875 156.01859375 -54.54296875 158.05859375 C-55.6673179 156.9342446 -56.79131385 155.80954112 -57.9140625 154.68359375 C-59.10952321 153.49099985 -60.31091001 152.30433857 -61.515625 151.12109375 C-65.09696386 147.58661353 -68.51587637 144.09471692 -71.54296875 140.05859375 C-69.84561911 135.76777821 -66.72370104 132.79229887 -63.60546875 129.49609375 C-63.06728516 128.91923828 -62.52910156 128.34238281 -61.97460938 127.74804688 C-59.53722368 125.14235834 -57.07494005 122.57279683 -54.54296875 120.05859375 C-54.54296875 121.37859375 -54.54296875 122.69859375 -54.54296875 124.05859375 C-41.14986381 121.808113 -29.56868214 118.33316944 -18.54296875 110.05859375 C-17.723125 109.45660156 -16.90328125 108.85460937 -16.05859375 108.234375 C-13.27546561 105.82722845 -11.34277666 103.31594739 -9.23046875 100.30859375 C-8.18439453 98.83132812 -8.18439453 98.83132812 -7.1171875 97.32421875 C-6.59769531 96.5765625 -6.07820312 95.82890625 -5.54296875 95.05859375 C-6.71859375 94.59453125 -6.71859375 94.59453125 -7.91796875 94.12109375 C-10.54296875 93.05859375 -10.54296875 93.05859375 -12.54296875 92.05859375 C-12.90648437 93.14527344 -12.90648437 93.14527344 -13.27734375 94.25390625 C-17.91688247 104.53535317 -28.58996823 110.0269986 -38.54296875 114.05859375 C-50.12556951 118.10093503 -64.48757999 117.75233748 -75.64453125 112.67578125 C-83.55238811 108.26358079 -90.01066039 103.23564243 -95.54296875 96.05859375 C-98.01796875 97.04859375 -98.01796875 97.04859375 -100.54296875 98.05859375 C-96.7210559 108.9060817 -86.31202784 114.20759644 -76.54296875 119.05859375 C-71.99331097 120.94885271 -67.41268897 122.273155 -62.54296875 123.05859375 C-66.44807364 128.56579296 -70.64014519 133.4168673 -75.54296875 138.05859375 C-74.10350628 141.29374931 -72.29823291 143.63563944 -69.91796875 146.24609375 C-66.54296875 149.95859375 -66.54296875 149.95859375 -66.54296875 151.05859375 C-85.82636414 150.96588512 -103.0996183 139.07461645 -116.60546875 126.37109375 C-133.10227236 109.27561581 -141.25030486 87.04477422 -141.01806641 63.46801758 C-140.59564765 51.48509422 -137.55486063 40.36643072 -132.59375 29.4765625 C-131.19641016 26.36341559 -131.19641016 26.36341559 -130.54296875 23.05859375 C-131.99366297 21.43852336 -131.99366297 21.43852336 -133.54296875 20.05859375 C-130.6907449 19.38251106 -127.83665582 18.7175426 -124.98046875 18.05859375 C-123.78067383 17.77242187 -123.78067383 17.77242187 -122.55664062 17.48046875 C-117.75951343 16.38398253 -113.46280841 15.84727178 -108.54296875 16.05859375 C-107.34061637 19.32415962 -106.15869284 22.5967529 -104.98046875 25.87109375 C-104.63822266 26.79986328 -104.29597656 27.72863281 -103.94335938 28.68554688 C-103.62431641 29.57822266 -103.30527344 30.47089844 -102.9765625 31.390625 C-102.5288147 32.62389526 -102.5288147 32.62389526 -102.07202148 33.88208008 C-101.54296875 36.05859375 -101.54296875 36.05859375 -102.54296875 39.05859375 C-103.20296875 39.05859375 -103.86296875 39.05859375 -104.54296875 39.05859375 C-105.3567867 40.99554053 -106.16897791 42.93317086 -106.98046875 44.87109375 C-107.65916016 46.48951172 -107.65916016 46.48951172 -108.3515625 48.140625 C-110.69962634 53.89145676 -110.7264622 58.60405681 -110.73046875 64.74609375 C-110.74883789 66.19918945 -110.74883789 66.19918945 -110.76757812 67.68164062 C-110.77943132 73.52526491 -110.22057877 78.46054741 -108.54296875 84.05859375 C-108.26195312 85.03828125 -107.9809375 86.01796875 -107.69140625 87.02734375 C-107.43617188 87.86265625 -107.1809375 88.69796875 -106.91796875 89.55859375 C-106.65757812 90.41453125 -106.3971875 91.27046875 -106.12890625 92.15234375 C-105.83886719 93.0959375 -105.83886719 93.0959375 -105.54296875 94.05859375 C-103.56296875 93.06859375 -101.58296875 92.07859375 -99.54296875 91.05859375 C-99.73632812 90.49011719 -99.9296875 89.92164063 -100.12890625 89.3359375 C-100.38929688 88.56378906 -100.6496875 87.79164063 -100.91796875 86.99609375 C-101.17320312 86.24199219 -101.4284375 85.48789063 -101.69140625 84.7109375 C-101.97242188 83.83566406 -102.2534375 82.96039063 -102.54296875 82.05859375 C-102.89875 80.96933594 -103.25453125 79.88007813 -103.62109375 78.7578125 C-106.70443448 66.38525458 -104.86361904 53.27210717 -98.96484375 42.05859375 C-91.55127282 29.76943113 -80.5535619 20.89368046 -66.54296875 17.05859375 C-63.832356 16.83195389 -61.27148583 16.96450695 -58.54296875 17.05859375 C-58.54296875 14.41859375 -58.54296875 11.77859375 -58.54296875 9.05859375 C-73.61090965 12.30929166 -84.99506616 16.85366555 -96.14453125 27.765625 C-98.54296875 30.05859375 -98.54296875 30.05859375 -100.54296875 31.05859375 C-101.5478377 28.10189157 -102.54602899 25.14297798 -103.54296875 22.18359375 C-103.82914063 21.34183594 -104.1153125 20.50007813 -104.41015625 19.6328125 C-104.68085938 18.82714844 -104.9515625 18.02148438 -105.23046875 17.19140625 C-105.48183594 16.44777832 -105.73320312 15.70415039 -105.9921875 14.93798828 C-106.54296875 13.05859375 -106.54296875 13.05859375 -106.54296875 11.05859375 C-111.82296875 12.37859375 -117.10296875 13.69859375 -122.54296875 15.05859375 C-114.76085563 -0.50563249 -96.20215084 -10.30626806 -80.54296875 -15.94140625 C-79.60066406 -16.28171875 -78.65835938 -16.62203125 -77.6875 -16.97265625 C-50.6783403 -24.84577163 -21.78815787 -16.75760868 0 0 Z " fill="#3D62A3" transform="translate(249.54296875,57.94140625)"/>
<path d="M0 0 C8.99420982 6.4878868 15.15881447 14.04648438 17.3125 25.25 C18.3356288 36.38700862 16.17897759 46.76468121 8.94140625 55.5078125 C1.42061651 63.55163078 -6.60580842 68.18315413 -17.72924805 68.6953125 C-28.99434267 68.95934736 -37.12118308 66.79819461 -45.9296875 59.35546875 C-54.73894139 50.0736154 -57.4560399 39.22610505 -57.15234375 26.79296875 C-56.53069541 17.62704485 -51.84374754 9.82455817 -45.1875 3.625 C-31.60968131 -7.14520194 -15.04439336 -9.50439716 0 0 Z " fill="#E0E0E0" transform="translate(214.6875,92.75)"/>
<path d="M0 0 C1.20235238 3.26556587 2.38427591 6.53815915 3.5625 9.8125 C4.07586914 11.2056543 4.07586914 11.2056543 4.59960938 12.62695312 C4.91865234 13.51962891 5.23769531 14.41230469 5.56640625 15.33203125 C6.01415405 16.56530151 6.01415405 16.56530151 6.47094727 17.82348633 C7 20 7 20 6 23 C5.34 23 4.68 23 4 23 C3.18618205 24.93694678 2.37399084 26.87457711 1.5625 28.8125 C1.11003906 29.89144531 0.65757812 30.97039062 0.19140625 32.08203125 C-2.15665759 37.83286301 -2.18349345 42.54546306 -2.1875 48.6875 C-2.20586914 50.1405957 -2.20586914 50.1405957 -2.22460938 51.62304688 C-2.25306996 65.65411577 2.43325921 78.61492293 12 89 C12.62261719 89.67675781 13.24523437 90.35351562 13.88671875 91.05078125 C22.32733729 99.33062611 34.29226251 105.32746607 46 107 C42.09489511 112.50719921 37.90282356 117.35827355 33 122 C34.43946247 125.23515556 36.24473584 127.57704569 38.625 130.1875 C42 133.9 42 133.9 42 135 C22.71660461 134.90729137 5.44335045 123.0160227 -8.0625 110.3125 C-24.55930361 93.21702206 -32.70733611 70.98618047 -32.47509766 47.40942383 C-32.0526789 35.42650047 -29.01189188 24.30783697 -24.05078125 13.41796875 C-22.65344141 10.30482184 -22.65344141 10.30482184 -22 7 C-23.45069422 5.37992961 -23.45069422 5.37992961 -25 4 C-22.14777615 3.32391731 -19.29368707 2.65894885 -16.4375 2 C-15.23770508 1.71382813 -15.23770508 1.71382813 -14.01367188 1.421875 C-9.21654468 0.32538878 -4.91983966 -0.21132197 0 0 Z " fill="#E5834D" transform="translate(141,74)"/>
<path d="M0 0 C7.28809376 6.10624072 13.61448963 12.82160173 18.45703125 21.05859375 C18.45703125 21.71859375 18.45703125 22.37859375 18.45703125 23.05859375 C20.43703125 22.39859375 22.41703125 21.73859375 24.45703125 21.05859375 C22.61946891 29.48448935 19.98580599 37.19207614 16.45703125 45.05859375 C12.82973336 44.44647053 9.20571582 43.81672823 5.58203125 43.18359375 C4.54949219 43.00957031 3.51695312 42.83554688 2.453125 42.65625 C1.46699219 42.48222656 0.48085937 42.30820313 -0.53515625 42.12890625 C-1.90196533 41.89324951 -1.90196533 41.89324951 -3.29638672 41.65283203 C-5.54296875 41.05859375 -5.54296875 41.05859375 -7.54296875 39.05859375 C-7.54296875 37.73859375 -7.54296875 36.41859375 -7.54296875 35.05859375 C-13.80034355 24.17357842 -24.36146301 17.9458744 -35.54296875 13.05859375 C-36.32027344 12.71570313 -37.09757812 12.3728125 -37.8984375 12.01953125 C-50.20322418 7.48730346 -64.68441031 9.19932014 -76.54296875 14.05859375 C-77.40019531 14.38601562 -78.25742188 14.7134375 -79.140625 15.05078125 C-85.92171098 17.99534157 -90.8304194 22.65449895 -96.07421875 27.73046875 C-98.54296875 30.05859375 -98.54296875 30.05859375 -100.54296875 31.05859375 C-101.5478377 28.10189157 -102.54602899 25.14297798 -103.54296875 22.18359375 C-103.82914063 21.34183594 -104.1153125 20.50007813 -104.41015625 19.6328125 C-104.68085938 18.82714844 -104.9515625 18.02148438 -105.23046875 17.19140625 C-105.48183594 16.44777832 -105.73320312 15.70415039 -105.9921875 14.93798828 C-106.54296875 13.05859375 -106.54296875 13.05859375 -106.54296875 11.05859375 C-111.82296875 12.37859375 -117.10296875 13.69859375 -122.54296875 15.05859375 C-114.76085563 -0.50563249 -96.20215084 -10.30626806 -80.54296875 -15.94140625 C-79.60066406 -16.28171875 -78.65835938 -16.62203125 -77.6875 -16.97265625 C-50.6783403 -24.84577163 -21.78815787 -16.75760868 0 0 Z " fill="#BE5550" transform="translate(249.54296875,57.94140625)"/>
<path d="M0 0 C1.32 0 2.64 0 4 0 C4 2.31 4 4.62 4 7 C5.8253125 6.87625 5.8253125 6.87625 7.6875 6.75 C20.00874159 6.80811906 29.86510743 12.42282494 38.75 20.5 C39.4925 21.325 40.235 22.15 41 23 C41.47953125 23.48726562 41.9590625 23.97453125 42.453125 24.4765625 C51.31539557 33.92069932 54.46016187 46.20217361 54.265625 58.86328125 C53.82367102 64.0822378 52.45733784 68.98615374 51 74 C50.66040328 75.33175184 50.32443229 76.66447292 50 78 C51.98 78.99 53.96 79.98 56 81 C56.495 79.515 56.495 79.515 57 78 C57 79.32 57 80.64 57 82 C56.01 82 55.02 82 54 82 C53.505 83.485 53.505 83.485 53 85 C48.25 83.125 48.25 83.125 46 82 C45.63648438 83.08667969 45.63648438 83.08667969 45.265625 84.1953125 C40.62608628 94.47675942 29.95300052 99.96840485 20 104 C8.41739924 108.04234128 -5.94461124 107.69374373 -17.1015625 102.6171875 C-25.00941936 98.20498704 -31.46769164 93.17704868 -37 86 C-40.465 86.99 -40.465 86.99 -44 88 C-44.66 86.68 -45.32 85.36 -46 84 C-44.35 83.01 -42.7 82.02 -41 81 C-41.19335938 80.43152344 -41.38671875 79.86304688 -41.5859375 79.27734375 C-41.84632813 78.50519531 -42.10671875 77.73304688 -42.375 76.9375 C-42.63023437 76.18339844 -42.88546875 75.42929688 -43.1484375 74.65234375 C-43.42945313 73.77707031 -43.71046875 72.90179688 -44 72 C-44.35578125 70.91074219 -44.7115625 69.82148438 -45.078125 68.69921875 C-48.16146573 56.32666083 -46.32065029 43.21351342 -40.421875 32 C-33.00830407 19.71083738 -22.01059315 10.83508671 -8 7 C-5.28938725 6.77336014 -2.72851708 6.9059132 0 7 C0 4.69 0 2.38 0 0 Z M-24.75 31.9140625 C-26.3139907 33.87687083 -27.67498503 35.8695048 -29 38 C-29.62068359 38.94552734 -29.62068359 38.94552734 -30.25390625 39.91015625 C-34.71230658 47.97255963 -34.10308621 58.36736606 -32.375 67.19140625 C-29.1407906 77.34162594 -22.61888843 84.71745134 -13.39453125 89.84375 C-12.20923828 90.41609375 -12.20923828 90.41609375 -11 91 C-10.25621094 91.37511719 -9.51242188 91.75023437 -8.74609375 92.13671875 C-4.89318241 93.34794692 -1.26677172 93.34150495 2.75 93.3125 C3.55550293 93.30686035 4.36100586 93.3012207 5.19091797 93.29541016 C16.11714231 93.071884 23.01664688 89.67808 30.9140625 82.18359375 C38.64028548 74.04640147 41.37922971 64.24487616 41.28515625 53.23828125 C40.3136548 42.2057511 34.32602168 33.01483717 26 26 C9.30729112 14.59131407 -11.04598084 16.92529155 -24.75 31.9140625 Z " fill="#4D8A9B" transform="translate(191,68)"/>
<path d="M0 0 C0 0.99 0 1.98 0 3 C0.99 3.33 1.98 3.66 3 4 C2.34 5.32 1.68 6.64 1 8 C2.32 8.66 3.64 9.32 5 10 C5.217473 13.18960406 5.34479432 15.35592877 3.81640625 18.2109375 C2 20 2 20 -0.453125 20.2421875 C-1.37609375 20.12101562 -2.2990625 19.99984375 -3.25 19.875 C-4.22582031 19.75125 -5.20164062 19.6275 -6.20703125 19.5 C-8.52726282 19.08462987 -10.69226077 18.57633286 -12.9375 17.875 C-16.03508787 16.9899749 -17.04593226 17.12472067 -20 18 C-20.66 17.34 -21.32 16.68 -22 16 C-22.33 16.66 -22.66 17.32 -23 18 C-24.32 17.67 -25.64 17.34 -27 17 C-27.33 17.66 -27.66 18.32 -28 19 C-28.928125 18.690625 -28.928125 18.690625 -29.875 18.375 C-30.57625 18.25125 -31.2775 18.1275 -32 18 C-32.66 18.66 -33.32 19.32 -34 20 C-34.66 20 -35.32 20 -36 20 C-36.474375 20.66 -36.94875 21.32 -37.4375 22 C-37.953125 22.66 -38.46875 23.32 -39 24 C-39.99 24 -40.98 24 -42 24 C-45.13114488 26.01287885 -46.74257307 27.12870887 -47.8125 30.75 C-47.9053125 31.86375 -47.9053125 31.86375 -48 33 C-46.68 33.33 -45.36 33.66 -44 34 C-44.71285156 34.49628906 -45.42570312 34.99257812 -46.16015625 35.50390625 C-51.94588758 39.60764839 -57.20546945 43.76365264 -62 49 C-64.83443922 46.16556078 -65.49801967 42.74786481 -66.625 39 C-66.96917969 37.89398438 -66.96917969 37.89398438 -67.3203125 36.765625 C-69 31.28664435 -69 31.28664435 -69 29 C-74.28 30.32 -79.56 31.64 -85 33 C-77.21788688 17.43577376 -58.65918209 7.63513819 -43 2 C-42.05769531 1.6596875 -41.11539063 1.319375 -40.14453125 0.96875 C-28.49364947 -2.42745846 -11.66887561 -3.44899685 0 0 Z " fill="#BE5651" transform="translate(212,40)"/>
<path d="M0 0 C8.99420982 6.4878868 15.15881447 14.04648438 17.3125 25.25 C18.3356288 36.38700862 16.17897759 46.76468121 8.94140625 55.5078125 C1.42061651 63.55163078 -6.60580842 68.18315413 -17.72924805 68.6953125 C-28.99434267 68.95934736 -37.12118308 66.79819461 -45.9296875 59.35546875 C-54.73894139 50.0736154 -57.4560399 39.22610505 -57.15234375 26.79296875 C-56.53069541 17.62704485 -51.84374754 9.82455817 -45.1875 3.625 C-31.60968131 -7.14520194 -15.04439336 -9.50439716 0 0 Z M-45.36328125 14.359375 C-50.6696876 21.93548317 -50.43900403 30.29051044 -49.6875 39.25 C-48.75639951 42.58512244 -48.75639951 42.58512244 -47.6875 45.25 C-47.0275 45.25 -46.3675 45.25 -45.6875 45.25 C-45.625625 45.806875 -45.56375 46.36375 -45.5 46.9375 C-44.33397898 50.25617521 -42.27128237 51.90110694 -39.6875 54.25 C-38.5428125 55.301875 -38.5428125 55.301875 -37.375 56.375 C-29.38034002 61.95266975 -21.21118781 62.24988822 -11.6875 61.25 C-3.3947663 59.29572734 1.13430012 55.05358589 5.71875 48.0078125 C10.36583603 39.96653129 12.09589524 32.01204028 9.65625 22.76171875 C5.62583502 12.70305378 -1.90204387 6.41654619 -11.5 1.9375 C-24.82254624 -0.93599037 -36.82643386 3.69391737 -45.36328125 14.359375 Z " fill="#F6FBFB" transform="translate(214.6875,92.75)"/>
<path d="M0 0 C13.34197607 -1.17034878 26.43346535 4.91339051 36.65625 13.13671875 C41.50538789 17.33692789 45.73765989 21.45402181 49 27 C49 28.32 49 29.64 49 31 C56.26 32.32 63.52 33.64 71 35 C72.32 31.37 73.64 27.74 75 24 C75.99 24.66 76.98 25.32 78 26 C77.52188823 27.77111844 77.0424722 29.54188483 76.5625 31.3125 C76.29566406 32.29863281 76.02882813 33.28476563 75.75390625 34.30078125 C75.21920575 36.21517526 74.62855462 38.11433615 74 40 C67.29221378 39.22602467 60.65425699 38.14231412 54 37 C54.2165625 37.680625 54.433125 38.36125 54.65625 39.0625 C58.88599055 53.78826341 57.85769517 67.86512687 52 82 C49.0625 81.1875 49.0625 81.1875 46 80 C44.88045801 76.64137403 45.05411221 76.25947297 46.375 73.1875 C50.73251978 62.18426513 49.91344808 50.04203379 46 39 C43.79621669 34.16649207 41.59339135 29.59055108 37.80859375 25.8125 C36 24 36 24 36 22 C35.43152344 21.73960938 34.86304688 21.47921875 34.27734375 21.2109375 C31.80930576 19.89860169 29.77374014 18.33283809 27.5625 16.625 C19.32757574 10.79496513 9.94614521 8.67431493 0 8 C0 5.36 0 2.72 0 0 Z " fill="#F3F6F7" transform="translate(195,67)"/>
<path d="M0 0 C4.75 1.875 4.75 1.875 7 3 C0.91710478 16.23029709 -10.78739094 23.96925764 -24 29 C-30.07300074 31.04072494 -35.58190374 32.42787308 -42 32 C-42.495 30.515 -42.495 30.515 -43 29 C-43.4125 29.47308594 -43.825 29.94617188 -44.25 30.43359375 C-48.80417611 35.64853201 -53.39354975 40.83120388 -58 46 C-57.67 46.598125 -57.34 47.19625 -57 47.8125 C-56 50 -56 50 -56 53 C-56.495 53.99 -56.495 53.99 -57 55 C-59.31 52.69 -61.62 50.38 -64 48 C-61.95652069 43.91304138 -59.46513887 41.02837068 -56.375 37.75 C-55.6015625 36.91855469 -55.6015625 36.91855469 -54.8125 36.0703125 C-53.54574965 34.7097288 -52.27342185 33.35434163 -51 32 C-51.81082031 31.78085938 -52.62164062 31.56171875 -53.45703125 31.3359375 C-67.67964551 27.26287218 -80.41497328 20.52236757 -89 8 C-88.67 7.01 -88.34 6.02 -88 5 C-85.4375 3.8125 -85.4375 3.8125 -83 3 C-82.55011719 3.56847656 -82.10023438 4.13695312 -81.63671875 4.72265625 C-76.47136092 10.92315593 -71.11149329 15.19801051 -64 19 C-62.78957031 19.65355469 -62.78957031 19.65355469 -61.5546875 20.3203125 C-51.18063076 24.97075173 -37.12957236 24.68623961 -26.375 21.375 C-15.71304305 17.08018354 -5.30074287 10.60148573 0 0 Z " fill="#F4F7F7" transform="translate(237,150)"/>
<path d="M0 0 C0 2.64 0 5.28 0 8 C-0.63164062 8.06316406 -1.26328125 8.12632813 -1.9140625 8.19140625 C-14.7750879 9.95192125 -26.45965137 16.19384969 -35 26 C-43.91925245 38.34843474 -46.39904744 51.06930556 -45 66 C-44.31292348 69.4970433 -43.30685118 72.69143531 -42 76 C-41.608125 77.19625 -41.21625 78.3925 -40.8125 79.625 C-40.544375 80.40875 -40.27625 81.1925 -40 82 C-44.75 85 -44.75 85 -47 85 C-47.82065069 83.12855305 -48.6311584 81.25265664 -49.4375 79.375 C-49.88996094 78.33085937 -50.34242188 77.28671875 -50.80859375 76.2109375 C-55.51166794 63.53576706 -54.82736264 46.5896456 -49.2890625 34.36328125 C-48 32 -48 32 -46 29 C-45.34 29 -44.68 29 -44 29 C-46.03394286 21.15269144 -46.03394286 21.15269144 -48.6875 13.5 C-50 10 -50 10 -50 7 C-53.3 6.34 -56.6 5.68 -60 5 C-60 4.67 -60 4.34 -60 4 C-56.04 3.34 -52.08 2.68 -48 2 C-46.02 7.94 -44.04 13.88 -42 20 C-39.86879056 20.22892569 -39.86879056 20.22892569 -38.37109375 18.4609375 C-37.73300781 17.77257812 -37.09492188 17.08421875 -36.4375 16.375 C-26.9741763 6.75904205 -13.80226495 -0.39435043 0 0 Z " fill="#F7F8F7" transform="translate(191,67)"/>
<path d="M0 0 C0.33 0 0.66 0 1 0 C1.66 1.98 2.32 3.96 3 6 C3.886875 5.814375 4.77375 5.62875 5.6875 5.4375 C8.85178811 5.01957516 10.94839642 5.19222258 14 6 C14 6.66 14 7.32 14 8 C14.66 7.814375 15.32 7.62875 16 7.4375 C19.89330114 6.86972692 23.11375479 7.40718293 27 8 C27 8.66 27 9.32 27 10 C28.051875 10.28875 29.10375 10.5775 30.1875 10.875 C31.445625 11.24625 32.70375 11.6175 34 12 C34.928125 12.268125 35.85625 12.53625 36.8125 12.8125 C39 14 39 14 40.25 16.4375 C40.4975 17.283125 40.745 18.12875 41 19 C41.495 20.485 41.495 20.485 42 22 C40.35 23.32 38.7 24.64 37 26 C36.24976563 25.60167969 35.49953125 25.20335938 34.7265625 24.79296875 C19.99137584 17.16556105 5.73872915 13.99919613 -10.5 18.9375 C-13.08926937 19.84962898 -15.54693191 20.77346595 -18 22 C-20.3329866 22.04022391 -22.66706666 22.04320247 -25 22 C-25.2421875 19.70703125 -25.2421875 19.70703125 -25 17 C-23.3203125 15.19921875 -23.3203125 15.19921875 -21.125 13.6875 C-20.40570313 13.17574219 -19.68640625 12.66398437 -18.9453125 12.13671875 C-17 11 -17 11 -15 11 C-14.34 10.01 -13.68 9.02 -13 8 C-12.34 8 -11.68 8 -11 8 C-10.34 7.34 -9.68 6.68 -9 6 C-8.34 6 -7.68 6 -7 6 C-7 6.66 -7 7.32 -7 8 C-6.34 8 -5.68 8 -5 8 C-5 6.35 -5 4.7 -5 3 C-4.01 4.485 -4.01 4.485 -3 6 C-2.01 6.33 -1.02 6.66 0 7 C0 4.69 0 2.38 0 0 Z " fill="#BE5550" transform="translate(189,51)"/>
<path d="M0 0 C0.99 0.33 1.98 0.66 3 1 C3 1.99 3 2.98 3 4 C3.639375 3.5875 4.27875 3.175 4.9375 2.75 C8.46467525 1.88620198 8.72863144 2.17568092 11.75 3.8125 C18.63204244 7.29455554 26.44721936 6.8265722 34 7 C34 7.99 34 8.98 34 10 C39.23197628 9.0311155 43.56138004 8.08237497 48 5 C49.66666667 4 51.33333333 3 53 2 C55.87402727 4.5958956 57.24432948 6.21369298 58 10 C44.73536962 18.80395822 31.83022151 21.99943637 16 20 C11.41947547 18.92726073 7.18427637 17.13795143 3 15 C3.66 14.67 4.32 14.34 5 14 C4.73323796 12.01508358 4.73323796 12.01508358 4 10 C3.01 9.67 2.02 9.34 1 9 C1 8.34 1 7.68 1 7 C-0.32 6.67 -1.64 6.34 -3 6 C-2.67 5.34 -2.34 4.68 -2 4 C-1.34 4.33 -0.68 4.66 0 5 C-0.2784375 4.0409375 -0.2784375 4.0409375 -0.5625 3.0625 C-0.706875 2.381875 -0.85125 1.70125 -1 1 C-0.67 0.67 -0.34 0.34 0 0 Z " fill="#578C9C" transform="translate(168,154)"/>
<path d="M0 0 C2.87402727 2.5958956 4.24432948 4.21369298 5 8 C-1.1346545 11.95742848 -6.94417074 15.05709049 -14 17 C-14.12375 16.360625 -14.2475 15.72125 -14.375 15.0625 C-14.58125 14.381875 -14.7875 13.70125 -15 13 C-15.66 12.67 -16.32 12.34 -17 12 C-17 12.66 -17 13.32 -17 14 C-20.3 14 -23.6 14 -27 14 C-26.67 13.34 -26.34 12.68 -26 12 C-25.34 12.33 -24.68 12.66 -24 13 C-24 12.34 -24 11.68 -24 11 C-24.99 11 -25.98 11 -27 11 C-26.67 9.68 -26.34 8.36 -26 7 C-27.65 6.67 -29.3 6.34 -31 6 C-31 5.67 -31 5.34 -31 5 C-27.04 5 -23.08 5 -19 5 C-19 5.99 -19 6.98 -19 8 C-13.76802372 7.0311155 -9.43861996 6.08237497 -5 3 C-3.33333333 2 -1.66666667 1 0 0 Z " fill="#598B9A" transform="translate(221,156)"/>
<path d="M0 0 C0.99 0 1.98 0 3 0 C3 2 3 2 1.5 3.625 C1.005 4.07875 0.51 4.5325 0 5 C1.6875 3.4375 1.6875 3.4375 4 2 C6.75 2.3125 6.75 2.3125 9 3 C9 4.98 9 6.96 9 9 C7.68 9.33 6.36 9.66 5 10 C4.93941406 10.84304687 4.87882812 11.68609375 4.81640625 12.5546875 C4.73261719 13.65039062 4.64882812 14.74609375 4.5625 15.875 C4.48128906 16.96554688 4.40007812 18.05609375 4.31640625 19.1796875 C4 22 4 22 3 24 C0.9375 24.625 0.9375 24.625 -1 25 C0.32 25.33 1.64 25.66 3 26 C3 26.99 3 27.98 3 29 C3.66 29 4.32 29 5 29 C5 29.99 5 30.98 5 32 C1.37 32 -2.26 32 -6 32 C-6 31.01 -6 30.02 -6 29 C-4.35 28.67 -2.7 28.34 -1 28 C-3.475 27.01 -3.475 27.01 -6 26 C-5.505 24.515 -5.505 24.515 -5 23 C-2.4375 21.8125 -2.4375 21.8125 0 21 C0 20.34 0 19.68 0 19 C-1.65 18.67 -3.3 18.34 -5 18 C-5.33 15.36 -5.66 12.72 -6 10 C-5.01 10 -4.02 10 -3 10 C-3 9.34 -3 8.68 -3 8 C-2.34 8 -1.68 8 -1 8 C-1.20625 7.05125 -1.4125 6.1025 -1.625 5.125 C-1.74875 4.09375 -1.8725 3.0625 -2 2 C-1.34 1.34 -0.68 0.68 0 0 Z " fill="#D78B5E" transform="translate(123,96)"/>
<path d="M0 0 C2.61792685 3.92689027 3.05737075 7.32018607 3 12 C1.875 15.0625 1.875 15.0625 0 17 C-2.6875 17.3125 -2.6875 17.3125 -5 17 C-5.33 16.34 -5.66 15.68 -6 15 C-6.99 15.33 -7.98 15.66 -9 16 C-9 14.68 -9 13.36 -9 12 C-8.34 12 -7.68 12 -7 12 C-7.7734375 10.9171875 -7.7734375 10.9171875 -8.5625 9.8125 C-10 7 -10 7 -9.875 4.3125 C-8.0714986 -0.45389655 -4.52476914 -0.48135842 0 0 Z " fill="#DC8D62" transform="translate(132,147)"/>
<path d="M0 0 C1.32 0 2.64 0 4 0 C4 0.66 4 1.32 4 2 C4.66 2 5.32 2 6 2 C6 2.66 6 3.32 6 4 C6.99 4 7.98 4 9 4 C9 4.66 9 5.32 9 6 C9.99 6.33 10.98 6.66 12 7 C10.52307692 11.67692308 10.52307692 11.67692308 7.875 13.3125 C6.946875 13.6528125 6.946875 13.6528125 6 14 C7.20381448 11.50638429 8.45428722 9.31856917 10 7 C9.360625 7.639375 8.72125 8.27875 8.0625 8.9375 C4.08069118 11.61912635 0.705208 11.79498004 -4 12 C-4 12.99 -4 13.98 -4 15 C-3.34 15.33 -2.68 15.66 -2 16 C-2.33 16.66 -2.66 17.32 -3 18 C-4.70884005 16.37660195 -6.37446717 14.70680947 -8 13 C-8 12.34 -8 11.68 -8 11 C-6.68 10.67 -5.36 10.34 -4 10 C-3.8453125 9.195625 -3.8453125 9.195625 -3.6875 8.375 C-2.81907303 5.37497956 -1.44379704 2.7620465 0 0 Z " fill="#B8564E" transform="translate(235,63)"/>
<path d="M0 0 C15.25 0 15.25 0 19 1 C18.67 3.31 18.34 5.62 18 8 C17.34 7.34 16.68 6.68 16 6 C15.01 7.32 14.02 8.64 13 10 C11.125 9.8125 11.125 9.8125 9 9 C7.75 6.4375 7.75 6.4375 7 4 C6.34 4 5.68 4 5 4 C5.66 4.66 6.32 5.32 7 6 C7 7.32 7 8.64 7 10 C5.02 10.33 3.04 10.66 1 11 C0.67 9.68 0.34 8.36 0 7 C2.475 7.99 2.475 7.99 5 9 C3.62308038 6.24616077 1.63279958 5.48516899 -1 4 C-0.67 2.68 -0.34 1.36 0 0 Z " fill="#506D9E" transform="translate(199,191)"/>
<path d="M0 0 C3.96 0 7.92 0 12 0 C12 0.99 12 1.98 12 3 C12.60328125 2.855625 13.2065625 2.71125 13.828125 2.5625 C14.62734375 2.376875 15.4265625 2.19125 16.25 2 C17.43335938 1.7215625 17.43335938 1.7215625 18.640625 1.4375 C21 1 21 1 25 1 C25.33 1.99 25.66 2.98 26 4 C25.38125 4.144375 24.7625 4.28875 24.125 4.4375 C21.96741678 4.93152225 21.96741678 4.93152225 20 6 C19.67 5.67 19.34 5.34 19 5 C18.67 5.99 18.34 6.98 18 8 C16.68 7.67 15.36 7.34 14 7 C14 7.66 14 8.32 14 9 C10.7 9 7.4 9 4 9 C4.33 8.34 4.66 7.68 5 7 C5.66 7.33 6.32 7.66 7 8 C7 7.34 7 6.68 7 6 C6.01 6 5.02 6 4 6 C4.33 4.68 4.66 3.36 5 2 C3.35 1.67 1.7 1.34 0 1 C0 0.67 0 0.34 0 0 Z " fill="#85ABB6" transform="translate(190,161)"/>
<path d="M0 0 C0.99 0.66 1.98 1.32 3 2 C2.52188823 3.77111844 2.0424722 5.54188483 1.5625 7.3125 C1.29566406 8.29863281 1.02882813 9.28476563 0.75390625 10.30078125 C0.21920575 12.21517526 -0.37144538 14.11433615 -1 16 C-7.08233706 15.32418477 -13.01314152 14.26361972 -19 13 C-18.67 12.34 -18.34 11.68 -18 11 C-19.32 10.67 -20.64 10.34 -22 10 C-22 9.34 -22 8.68 -22 8 C-13.09 9.485 -13.09 9.485 -4 11 C-2.68 7.37 -1.36 3.74 0 0 Z " fill="#ECE9F0" transform="translate(270,91)"/>
<path d="M0 0 C3.69719276 -0.71889859 5.04466775 0.02696921 8.3125 2 C9.199375 2.66 10.08625 3.32 11 4 C10.67 4.66 10.34 5.32 10 6 C10 6.33 10 6.66 10 7 C10 8.32 10 9.64 10 11 C5.56366125 11.39144165 2.71662762 10.44959548 -1 8 C-2 5.5 -2 5.5 -2 3 C-1.34 2.01 -0.68 1.02 0 0 Z " fill="#C17F7B" transform="translate(219,54)"/>
<path d="M0 0 C2.31 6.93 4.62 13.86 7 21 C6.01 21 5.02 21 4 21 C3.67 21.66 3.34 22.32 3 23 C2.16112944 20.56427941 1.32873471 18.12666783 0.5 15.6875 C0.26152344 14.99720703 0.02304688 14.30691406 -0.22265625 13.59570312 C-1.23208263 10.61068511 -2 8.17341086 -2 5 C-5.3 4.34 -8.6 3.68 -12 3 C-12 2.67 -12 2.34 -12 2 C-10.56342755 1.66269158 -9.12569907 1.33030409 -7.6875 1 C-6.88699219 0.814375 -6.08648437 0.62875 -5.26171875 0.4375 C-3 0 -3 0 0 0 Z " fill="#FBEBE4" transform="translate(143,69)"/>
<path d="M0 0 C3.3 0 6.6 0 10 0 C9.34 1.32 8.68 2.64 8 4 C8.99 4.66 9.98 5.32 11 6 C11 5.01 11 4.02 11 3 C11.66 3 12.32 3 13 3 C12.67 4.32 12.34 5.64 12 7 C10.68 7.33 9.36 7.66 8 8 C7.01 6.68 6.02 5.36 5 4 C5.33 5.98 5.66 7.96 6 10 C5.34 10 4.68 10 4 10 C3.34 8.68 2.68 7.36 2 6 C1.67 8.31 1.34 10.62 1 13 C-2.82946843 11.54744301 -4.12050295 9.57104439 -6 6 C-4.02 6.99 -4.02 6.99 -2 8 C-0.74335022 5.09399739 0 3.20395416 0 0 Z " fill="#9AB4DA" transform="translate(224,184)"/>
<path d="M0 0 C2.64 0 5.28 0 8 0 C7.67 2.31 7.34 4.62 7 7 C6.01 7.33 5.02 7.66 4 8 C5.32 8.33 6.64 8.66 8 9 C8 9.99 8 10.98 8 12 C8.66 12 9.32 12 10 12 C10 12.99 10 13.98 10 15 C6.37 15 2.74 15 -1 15 C-1 14.01 -1 13.02 -1 12 C0.65 11.67 2.3 11.34 4 11 C1.525 10.01 1.525 10.01 -1 9 C-0.67 8.01 -0.34 7.02 0 6 C2.5625 4.8125 2.5625 4.8125 5 4 C5 3.34 5 2.68 5 2 C3.35 1.67 1.7 1.34 0 1 C0 0.67 0 0.34 0 0 Z " fill="#FBD8B8" transform="translate(118,113)"/>
<path d="M0 0 C1 1 1 1 1.25 3.375 C1 6 1 6 -0.125 7.8125 C-2.83445834 9.52849028 -4.86295684 9.333728 -8 9 C-8.66 8.34 -9.32 7.68 -10 7 C-9.8125 4.5 -9.8125 4.5 -9 2 C-5.55892734 -0.29404844 -4.03160191 -0.26293056 0 0 Z " fill="#FEE0C3" transform="translate(132,147)"/>
<path d="M0 0 C0.66 1.32 1.32 2.64 2 4 C2.66 3.67 3.32 3.34 4 3 C4 4.32 4 5.64 4 7 C4.99 7.66 5.98 8.32 7 9 C6.195625 8.814375 5.39125 8.62875 4.5625 8.4375 C3.716875 8.293125 2.87125 8.14875 2 8 C1.67 8.33 1.34 8.66 1 9 C-0.99954746 9.04254356 -3.00041636 9.04080783 -5 9 C-5.66 9 -6.32 9 -7 9 C-8.32 9 -9.64 9 -11 9 C-11.625 7.125 -11.625 7.125 -12 5 C-11.34 4.34 -10.68 3.68 -10 3 C-8.32995171 3.31595508 -6.66362417 3.65179959 -5 4 C-2.27497035 3.62277985 -2.27497035 3.62277985 0 3 C0 2.01 0 1.02 0 0 Z " fill="#969696" transform="translate(175,266)"/>
<path d="M0 0 C0.78375 0.04125 1.5675 0.0825 2.375 0.125 C2.705 1.445 3.035 2.765 3.375 4.125 C4.365 4.125 5.355 4.125 6.375 4.125 C6.705 5.445 7.035 6.765 7.375 8.125 C4.735 9.115 2.095 10.105 -0.625 11.125 C-0.625 10.465 -0.625 9.805 -0.625 9.125 C-1.615 8.795 -2.605 8.465 -3.625 8.125 C-4.25 5.25 -4.25 5.25 -4.625 2.125 C-2.625 0.125 -2.625 0.125 0 0 Z " fill="#D99164" transform="translate(135.625,163.875)"/>
<path d="M0 0 C4.75 0.875 4.75 0.875 7 2 C7.36923077 7.41538462 7.36923077 7.41538462 5.5 10.375 C5.005 10.91125 4.51 11.4475 4 12 C1.03 11.505 1.03 11.505 -2 11 C-1 3.57142857 -1 3.57142857 0 0 Z " fill="#F9DBD7" transform="translate(210,48)"/>
<path d="M0 0 C0.66 0 1.32 0 2 0 C3.78305524 2.63892176 4.99059621 4.97178863 6 8 C4.68 8.33 3.36 8.66 2 9 C2 9.99 2 10.98 2 12 C1.34 12 0.68 12 0 12 C-0.804375 11.175 -1.60875 10.35 -2.4375 9.5 C-4.76122416 6.65083807 -4.76122416 6.65083807 -8 7 C-6.63016497 3.83884224 -6.0109362 3.0072908 -3 1 C-2.34 1.33 -1.68 1.66 -1 2 C-0.67 1.34 -0.34 0.68 0 0 Z " fill="#44659C" transform="translate(249,167)"/>
<path d="M0 0 C1.98 0 3.96 0 6 0 C6.33 1.65 6.66 3.3 7 5 C5.68 5.99 4.36 6.98 3 8 C3.99 8.33 4.98 8.66 6 9 C5.67 9.66 5.34 10.32 5 11 C1.7 10.34 -1.6 9.68 -5 9 C-4.67 8.01 -4.34 7.02 -4 6 C-3.34 5.67 -2.68 5.34 -2 5 C-1.27840576 3.35636866 -0.60648579 1.68949614 0 0 Z " fill="#ACC3DD" transform="translate(265,129)"/>
<path d="M0 0 C1.09375 3.7421875 1.09375 3.7421875 0.25 6.0625 C-0.99443419 7.99137299 -2.30547429 9.45952209 -4 11 C-3.67 11.598125 -3.34 12.19625 -3 12.8125 C-2 15 -2 15 -2 18 C-2.33 18.66 -2.66 19.32 -3 20 C-5.31 17.69 -7.62 15.38 -10 13 C-8.19572805 9.39145611 -6.55275204 7.18688934 -3.875 4.25 C-3.15054688 3.45078125 -2.42609375 2.6515625 -1.6796875 1.828125 C-0.84824219 0.92320312 -0.84824219 0.92320312 0 0 Z " fill="#ECEBEC" transform="translate(183,185)"/>
<path d="M0 0 C3.63 0 7.26 0 11 0 C11 0.99 11 1.98 11 3 C9.68 3 8.36 3 7 3 C7 7.62 7 12.24 7 17 C6.01 17 5.02 17 4 17 C4 12.38 4 7.76 4 3 C2.68 3 1.36 3 0 3 C0 2.01 0 1.02 0 0 Z " fill="#151515" transform="translate(182,116)"/>
<path d="M0 0 C1.32 0 2.64 0 4 0 C4 0.99 4 1.98 4 3 C4.66 3 5.32 3 6 3 C4.76344399 6.42430894 3.59887381 9.40112619 1 12 C-1.6875 12.25 -1.6875 12.25 -4 12 C-3.54091176 7.31729991 -3.03245489 3.70633376 0 0 Z " fill="#D9895E" transform="translate(149,175)"/>
<path d="M0 0 C0.33 0.99 0.66 1.98 1 3 C2.98 3 4.96 3 7 3 C7 4.65 7 6.3 7 8 C7.66 8 8.32 8 9 8 C9 6.35 9 4.7 9 3 C9.99 3 10.98 3 12 3 C12.33 2.34 12.66 1.68 13 1 C13 1.66 13 2.32 13 3 C13.99 3 14.98 3 16 3 C16.33 2.34 16.66 1.68 17 1 C17 1.66 17 2.32 17 3 C17.66 3.33 18.32 3.66 19 4 C18.34 4 17.68 4 17 4 C17 5.32 17 6.64 17 8 C17.66 8.33 18.32 8.66 19 9 C18.01 9 17.02 9 16 9 C16 7.35 16 5.7 16 4 C15.01 4 14.02 4 13 4 C13 5.32 13 6.64 13 8 C13.66 8.33 14.32 8.66 15 9 C11.04 9 7.08 9 3 9 C3 7.35 3 5.7 3 4 C2.34 4 1.68 4 1 4 C1 5.65 1 7.3 1 9 C0.67 9 0.34 9 0 9 C0 6.03 0 3.06 0 0 Z " fill="#747474" transform="translate(125,266)"/>
<path d="M0 0 C0.99 0.33 1.98 0.66 3 1 C3 1.99 3 2.98 3 4 C4.65 4 6.3 4 8 4 C8.268125 4.61875 8.53625 5.2375 8.8125 5.875 C9.95556848 8.2995233 9.95556848 8.2995233 13 10 C11.68 10.99 10.36 11.98 9 13 C9 11.68 9 10.36 9 9 C8.13375 9.556875 8.13375 9.556875 7.25 10.125 C5 11 5 11 2.75 10.125 C2.1725 9.75375 1.595 9.3825 1 9 C1 8.34 1 7.68 1 7 C-0.32 6.67 -1.64 6.34 -3 6 C-2.67 5.34 -2.34 4.68 -2 4 C-1.34 4.33 -0.68 4.66 0 5 C-0.2784375 4.0409375 -0.2784375 4.0409375 -0.5625 3.0625 C-0.706875 2.381875 -0.85125 1.70125 -1 1 C-0.67 0.67 -0.34 0.34 0 0 Z " fill="#96C1CD" transform="translate(168,154)"/>
<path d="M0 0 C0.99 0 1.98 0 3 0 C3 4.62 3 9.24 3 14 C5.31 14 7.62 14 10 14 C10 14.99 10 15.98 10 17 C6.7 17 3.4 17 0 17 C0 11.39 0 5.78 0 0 Z " fill="#151515" transform="translate(204,116)"/>
<path d="M0 0 C1.32 0.33 2.64 0.66 4 1 C3.67 1.66 3.34 2.32 3 3 C4.98 3 6.96 3 9 3 C9.33 3.99 9.66 4.98 10 6 C9.01 6 8.02 6 7 6 C6.67 7.32 6.34 8.64 6 10 C7.32 9.67 8.64 9.34 10 9 C9.67 9.99 9.34 10.98 9 12 C5.125 11.125 5.125 11.125 4 10 C3.67 10.66 3.34 11.32 3 12 C2.34 12 1.68 12 1 12 C-0.3271261 8.0186217 -0.06915913 4.14954773 0 0 Z " fill="#DC9B95" transform="translate(186,46)"/>
<path d="M0 0 C1.32 0.66 2.64 1.32 4 2 C3.67 2.99 3.34 3.98 3 5 C-0.56045177 6.18681726 -3.43808337 6.09689832 -7.1875 6.0625 C-8.45980469 6.05347656 -9.73210937 6.04445312 -11.04296875 6.03515625 C-12.50669922 6.01775391 -12.50669922 6.01775391 -14 6 C-13.34 5.01 -12.68 4.02 -12 3 C-11.67 2.34 -11.34 1.68 -11 1 C-7.37 1.33 -3.74 1.66 0 2 C0 1.34 0 0.68 0 0 Z " fill="#4D8799" transform="translate(204,168)"/>
<path d="M0 0 C1.32 0 2.64 0 4 0 C4 0.66 4 1.32 4 2 C4.66 2 5.32 2 6 2 C4.70306052 5.89081843 3.29300888 8.48181674 0 11 C-2.25 10.75 -2.25 10.75 -4 10 C-3.29445932 6.33118845 -1.72264494 3.29549466 0 0 Z " fill="#E8BDB9" transform="translate(235,63)"/>
<path d="M0 0 C0.7425 0.185625 1.485 0.37125 2.25 0.5625 C4.97391397 0.99584995 6.40770504 0.7406557 9 0 C10 1 10 1 10.0625 4.0625 C10.041875 5.031875 10.02125 6.00125 10 7 C8.1875 7.6875 8.1875 7.6875 6 8 C4.25 6.5625 4.25 6.5625 3 5 C2.67 5.33 2.34 5.66 2 6 C2.66 6.66 3.32 7.32 4 8 C2.35 8 0.7 8 -1 8 C-0.690625 7.401875 -0.38125 6.80375 -0.0625 6.1875 C1.10209704 3.91043228 1.10209704 3.91043228 2 1 C1.34 0.67 0.68 0.34 0 0 Z " fill="#A4A4A4" transform="translate(214,267)"/>
<path d="M0 0 C2.01822917 0.06510417 4.03645833 0.13020833 6.0546875 0.1953125 C6.3846875 1.8453125 6.7146875 3.4953125 7.0546875 5.1953125 C3.64905898 5.97374188 0.54702994 6.29509371 -2.9453125 6.1953125 C-3.5703125 4.3203125 -3.5703125 4.3203125 -3.9453125 2.1953125 C-1.9453125 0.1953125 -1.9453125 0.1953125 0 0 Z " fill="#909090" transform="translate(186.9453125,268.8046875)"/>
<path d="M0 0 C0.99 0 1.98 0 3 0 C3 5.94 3 11.88 3 18 C2.01 18 1.02 18 0 18 C0 12.06 0 6.12 0 0 Z " fill="#272727" transform="translate(197,115)"/>
<path d="M0 0 C0.99 0 1.98 0 3 0 C3 2 3 2 1.5 3.625 C1.005 4.07875 0.51 4.5325 0 5 C1.6875 3.4375 1.6875 3.4375 4 2 C6.75 2.3125 6.75 2.3125 9 3 C8.67 4.65 8.34 6.3 8 8 C7.01 8.33 6.02 8.66 5 9 C5 8.34 5 7.68 5 7 C5.66 7 6.32 7 7 7 C7 6.01 7 5.02 7 4 C6.34 4 5.68 4 5 4 C4.34 5.32 3.68 6.64 3 8 C1.68 7.67 0.36 7.34 -1 7 C-1.625 4.625 -1.625 4.625 -2 2 C-1.34 1.34 -0.68 0.68 0 0 Z " fill="#FCDFC3" transform="translate(123,96)"/>
<path d="M0 0 C2.0625 0.4375 2.0625 0.4375 4 1 C4 1.66 4 2.32 4 3 C2.68 2.67 1.36 2.34 0 2 C0 2.66 0 3.32 0 4 C0.78375 3.95875 1.5675 3.9175 2.375 3.875 C5 4 5 4 7 6 C6.625 8.625 6.625 8.625 6 11 C4.35 11 2.7 11 1 11 C0.67 10.01 0.34 9.02 0 8 C1.65 8.33 3.3 8.66 5 9 C5 8.34 5 7.68 5 7 C4.21625 7.04125 3.4325 7.0825 2.625 7.125 C0 7 0 7 -2 5 C-1.46428571 1.46428571 -1.46428571 1.46428571 0 0 Z " fill="#F6CEC9" transform="translate(160,54)"/>
<path d="M0 0 C0.66 0 1.32 0 2 0 C2 0.66 2 1.32 2 2 C4.31 2.33 6.62 2.66 9 3 C8.67 4.98 8.34 6.96 8 9 C7.01 8.67 6.02 8.34 5 8 C5 7.01 5 6.02 5 5 C4.01 5 3.02 5 2 5 C2.66 5.33 3.32 5.66 4 6 C4 6.66 4 7.32 4 8 C1.03 7.505 1.03 7.505 -2 7 C-1.34 4.69 -0.68 2.38 0 0 Z " fill="#9AC4D2" transform="translate(182,161)"/>
<path d="M0 0 C0.99 0 1.98 0 3 0 C3 5.61 3 11.22 3 17 C2.01 17 1.02 17 0 17 C0 11.39 0 5.78 0 0 Z " fill="#151515" transform="translate(175,116)"/>
<path d="M0 0 C1.65 0 3.3 0 5 0 C5.33 0.99 5.66 1.98 6 3 C4.68 3 3.36 3 2 3 C2.825 3.4125 3.65 3.825 4.5 4.25 C5.325 4.8275 6.15 5.405 7 6 C7 7.32 7 8.64 7 10 C5.02 10.33 3.04 10.66 1 11 C0.67 9.68 0.34 8.36 0 7 C2.475 7.99 2.475 7.99 5 9 C3.62308038 6.24616077 1.63279958 5.48516899 -1 4 C-0.67 2.68 -0.34 1.36 0 0 Z " fill="#D6E7F8" transform="translate(199,191)"/>
<path d="M0 0 C0.7425 0.185625 1.485 0.37125 2.25 0.5625 C4.94990963 0.99203108 6.44631077 0.85122974 9 0 C9.75 1.75 9.75 1.75 10 4 C8.0625 6.25 8.0625 6.25 6 8 C5.67 7.01 5.34 6.02 5 5 C4.01 5.33 3.02 5.66 2 6 C2.66 6.66 3.32 7.32 4 8 C2.35 8 0.7 8 -1 8 C-0.690625 7.401875 -0.38125 6.80375 -0.0625 6.1875 C1.10209704 3.91043228 1.10209704 3.91043228 2 1 C1.34 0.67 0.68 0.34 0 0 Z " fill="#777777" transform="translate(238,267)"/>
<path d="M0 0 C2.125 0.375 2.125 0.375 4 1 C4.125 3.375 4.125 3.375 4 6 C3.34 6.66 2.68 7.32 2 8 C-0.625 7.625 -0.625 7.625 -3 7 C-2.25 2.25 -2.25 2.25 0 0 Z " fill="#F2CBAD" transform="translate(155,183)"/>
<path d="M0 0 C0.33 0.99 0.66 1.98 1 3 C0.38125 3.144375 -0.2375 3.28875 -0.875 3.4375 C-3.03258322 3.93152225 -3.03258322 3.93152225 -5 5 C-5.33 4.67 -5.66 4.34 -6 4 C-6.33 4.99 -6.66 5.98 -7 7 C-7.99 6.67 -8.98 6.34 -10 6 C-9.67 4.35 -9.34 2.7 -9 1 C-3.375 -1.125 -3.375 -1.125 0 0 Z " fill="#B2D7E3" transform="translate(215,162)"/>
<path d="M0 0 C2.35953094 2.35953094 2.49141413 3.77895617 3 7 C2.34 7 1.68 7 1 7 C1 6.01 1 5.02 1 4 C0.01 4.495 0.01 4.495 -1 5 C-0.67 6.32 -0.34 7.64 0 9 C-1.875 8.75 -1.875 8.75 -4 8 C-5.25 5.9375 -5.25 5.9375 -6 4 C-3.94766315 1.7522025 -2.99332739 0.9977758 0 0 Z " fill="#AED4DE" transform="translate(221,156)"/>
<path d="M0 0 C2.0625 0.4375 2.0625 0.4375 4 1 C4 2.98 4 4.96 4 7 C2.125 7.625 2.125 7.625 0 8 C-0.66 7.34 -1.32 6.68 -2 6 C-1.44444444 1.44444444 -1.44444444 1.44444444 0 0 Z " fill="#999999" transform="translate(232,267)"/>
<path d="M0 0 C4.875 0.875 4.875 0.875 6 2 C6.04063832 3.66617115 6.042721 5.33388095 6 7 C3.69 7 1.38 7 -1 7 C-0.67 6.34 -0.34 5.68 0 5 C0.66 5.33 1.32 5.66 2 6 C2 5.34 2 4.68 2 4 C1.01 4 0.02 4 -1 4 C-0.67 2.68 -0.34 1.36 0 0 Z " fill="#A2CCD5" transform="translate(195,163)"/>
<path d="M0 0 C1.67542976 0.28604898 3.34385343 0.61781233 5 1 C5 1.99 5 2.98 5 4 C4.67 4.33 4.34 4.66 4 5 C4.66 5 5.32 5 6 5 C5.67 5.99 5.34 6.98 5 8 C3.35 7.67 1.7 7.34 0 7 C-0.38133299 5.0085944 -0.71325582 3.00720923 -1 1 C-0.67 0.67 -0.34 0.34 0 0 Z " fill="#F0CBC7" transform="translate(168,54)"/>
<path d="M0 0 C3.125 0.375 3.125 0.375 6 1 C6 2.32 6 3.64 6 5 C6.66 5.33 7.32 5.66 8 6 C7.443125 5.814375 6.88625 5.62875 6.3125 5.4375 C3.600867 4.92448835 1.65628961 5.3359276 -1 6 C-1.625 4.125 -1.625 4.125 -2 2 C-1.34 1.34 -0.68 0.68 0 0 Z " fill="#888888" transform="translate(165,269)"/>
<path d="M0 0 C1.32 0.66 2.64 1.32 4 2 C4 2.99 4 3.98 4 5 C3.01 5 2.02 5 1 5 C1 5.66 1 6.32 1 7 C1.99 6.67 2.98 6.34 4 6 C3.67 6.99 3.34 7.98 3 9 C1.68 8.67 0.36 8.34 -1 8 C-1.625 5.125 -1.625 5.125 -2 2 C-1.34 1.34 -0.68 0.68 0 0 Z " fill="#C3D8ED" transform="translate(209,192)"/>
<path d="M0 0 C2.96175123 0.61277612 4.38058783 1.25372522 7 3 C6.34 4.65 5.68 6.3 5 8 C4.01 7.67 3.02 7.34 2 7 C1.67 6.34 1.34 5.68 1 5 C0.34 5 -0.32 5 -1 5 C-0.67 3.35 -0.34 1.7 0 0 Z " fill="#C3D8EB" transform="translate(253,162)"/>
<path d="M0 0 C2.475 0.99 2.475 0.99 5 2 C4.50168276 5.68754757 3.89932357 7.60490662 1 10 C1.875 5.25 1.875 5.25 3 3 C1.29159719 4.63412443 0.06546953 5.86906094 -1 8 C-1.66 8 -2.32 8 -3 8 C-2.45276317 4.62537285 -1.9451 2.91765 0 0 Z " fill="#FDD9BA" transform="translate(162,186)"/>
<path d="M0 0 C1.32 0.66 2.64 1.32 4 2 C2.98545548 4.5363613 2.3146444 5.79351461 0 7.3125 C-0.66 7.539375 -1.32 7.76625 -2 8 C-2.66 7.67 -3.32 7.34 -4 7 C-3.67 5.35 -3.34 3.7 -3 2 C-2.01 2 -1.02 2 0 2 C0 1.34 0 0.68 0 0 Z " fill="#FFEACE" transform="translate(143,173)"/>
<path d="M0 0 C0.33 0.99 0.66 1.98 1 3 C1.66 3 2.32 3 3 3 C3 3.99 3 4.98 3 6 C-0.63 6 -4.26 6 -8 6 C-8 5.01 -8 4.02 -8 3 C-6.865625 2.87625 -5.73125 2.7525 -4.5625 2.625 C-3.386875 2.41875 -2.21125 2.2125 -1 2 C-0.67 1.34 -0.34 0.68 0 0 Z " fill="#F0B893" transform="translate(125,122)"/>
<path d="M0 0 C2.375 -0.125 2.375 -0.125 5 0 C5.66 0.66 6.32 1.32 7 2 C6.625 4.125 6.625 4.125 6 6 C3.69 5.67 1.38 5.34 -1 5 C-0.67 3.35 -0.34 1.7 0 0 Z " fill="#F7DCBF" transform="translate(120,105)"/>
<path d="M0 0 C2.97 0 5.94 0 9 0 C8.01 0.495 8.01 0.495 7 1 C7 2.65 7 4.3 7 6 C6.34 6 5.68 6 5 6 C5 5.01 5 4.02 5 3 C3.68 3 2.36 3 1 3 C1 3.66 1 4.32 1 5 C1.99 5.33 2.98 5.66 4 6 C2.68 6 1.36 6 0 6 C-1.125 2.25 -1.125 2.25 0 0 Z " fill="#767676" transform="translate(145,269)"/>
<path d="M0 0 C5.28 0.33 10.56 0.66 16 1 C16 1.33 16 1.66 16 2 C14.02 2.33 12.04 2.66 10 3 C9.67 3.99 9.34 4.98 9 6 C8.01 6 7.02 6 6 6 C6 5.01 6 4.02 6 3 C4.68 3 3.36 3 2 3 C2 2.34 2 1.68 2 1 C1.34 0.67 0.68 0.34 0 0 Z " fill="#488493" transform="translate(185,161)"/>
<path d="M0 0 C1.4540625 0.0309375 1.4540625 0.0309375 2.9375 0.0625 C3.2675 1.3825 3.5975 2.7025 3.9375 4.0625 C2.2875 4.3925 0.6375 4.7225 -1.0625 5.0625 C-1.0625 4.0725 -1.0625 3.0825 -1.0625 2.0625 C-1.7225 2.0625 -2.3825 2.0625 -3.0625 2.0625 C-2.7325 3.3825 -2.4025 4.7025 -2.0625 6.0625 C-3.0525 5.7325 -4.0425 5.4025 -5.0625 5.0625 C-3.9375 0.08035714 -3.9375 0.08035714 0 0 Z " fill="#F6DABA" transform="translate(123.0625,136.9375)"/>
<path d="M0 0 C0.6875 1.75 0.6875 1.75 1 4 C-0.4375 6.25 -0.4375 6.25 -2 8 C-2 7.01 -2 6.02 -2 5 C-5.3 4.34 -8.6 3.68 -12 3 C-12 2.67 -12 2.34 -12 2 C-10.56342755 1.66269158 -9.12569907 1.33030409 -7.6875 1 C-6.88699219 0.814375 -6.08648437 0.62875 -5.26171875 0.4375 C-3 0 -3 0 0 0 Z " fill="#F8DED4" transform="translate(143,69)"/>
<path d="M0 0 C2.475 0.99 2.475 0.99 5 2 C3.52307692 6.67692308 3.52307692 6.67692308 0.875 8.3125 C-0.053125 8.6528125 -0.053125 8.6528125 -1 9 C0.20381448 6.50638429 1.45428722 4.31856917 3 2 C2.21625 2.66 1.4325 3.32 0.625 4 C-2 6 -2 6 -4 6 C-2.84826645 3.53199953 -1.95216435 1.95216435 0 0 Z " fill="#FAD1CC" transform="translate(242,68)"/>
<path d="M0 0 C3.35595828 0.59927826 5.37801226 1.84622436 8 4 C7.01 4.495 7.01 4.495 6 5 C3.375 3.5625 3.375 3.5625 1 2 C1 2.99 1 3.98 1 5 C3.475 5.99 3.475 5.99 6 7 C5.01 7.33 4.02 7.66 3 8 C0.3125 6.5625 0.3125 6.5625 -2 5 C-1.34 3.35 -0.68 1.7 0 0 Z " fill="#C7DDF4" transform="translate(257,155)"/>
<path d="M0 0 C-0.66 0.66 -1.32 1.32 -2 2 C-1.01 2.33 -0.02 2.66 1 3 C0.67 3.66 0.34 4.32 0 5 C-3.3 4.34 -6.6 3.68 -10 3 C-9.67 2.01 -9.34 1.02 -9 0 C-5.93109813 -1.53445094 -3.29905734 -0.54984289 0 0 Z " fill="#93ADD1" transform="translate(270,135)"/>
<path d="M0 0 C1.32 1.65 2.64 3.3 4 5 C5.98491642 4.73323796 5.98491642 4.73323796 8 4 C8.33 3.01 8.66 2.02 9 1 C7.68 1.33 6.36 1.66 5 2 C5 1.34 5 0.68 5 0 C6.65 0 8.3 0 10 0 C10.125 2.375 10.125 2.375 10 5 C7.4345406 7.5654594 5.52313332 7.54046087 2 8 C0.23537317 4.91190305 0 3.76687864 0 0 Z " fill="#3D5D96" transform="translate(228,186)"/>
<path d="M0 0 C-0.99 0.33 -1.98 0.66 -3 1 C-3 1.66 -3 2.32 -3 3 C-0.13275314 2.42655063 0.8614515 2.1385485 3 0 C2.125 3.875 2.125 3.875 1 5 C-0.66617115 5.04063832 -2.33388095 5.042721 -4 5 C-4.33 4.34 -4.66 3.68 -5 3 C-5.99 3.33 -6.98 3.66 -8 4 C-7 1 -7 1 -5.125 -0.25 C-3 -1 -3 -1 0 0 Z " fill="#FDE4CB" transform="translate(131,159)"/>
<path d="M0 0 C4.875 3.625 4.875 3.625 6 7 C4.39504433 6.88557539 2.79101881 6.75805306 1.1875 6.625 C0.29417969 6.55539063 -0.59914062 6.48578125 -1.51953125 6.4140625 C-4 6 -4 6 -7 4 C-4.69 4 -2.38 4 0 4 C0 2.68 0 1.36 0 0 Z " fill="#DD966F" transform="translate(177,202)"/>
<path d="M0 0 C2.475 0.495 2.475 0.495 5 1 C4.34 2.65 3.68 4.3 3 6 C3.66 6 4.32 6 5 6 C5 5.34 5 4.68 5 4 C5.66 4 6.32 4 7 4 C6.67 4.99 6.34 5.98 6 7 C1.125 6.125 1.125 6.125 0 5 C-0.04063832 3.33382885 -0.042721 1.66611905 0 0 Z " fill="#CCDEED" transform="translate(236,180)"/>
<path d="M0 0 C3.1875 -0.3125 3.1875 -0.3125 6 0 C6 0.66 6 1.32 6 2 C5.401875 2.268125 4.80375 2.53625 4.1875 2.8125 C1.95616388 3.85257915 1.95616388 3.85257915 0.625 5.625 C-1.80395238 7.6802674 -3.93373089 7.20441794 -7 7 C-6.401875 6.773125 -5.80375 6.54625 -5.1875 6.3125 C-2.77377956 5.12252979 -2.77377956 5.12252979 -1.625 2.375 C-1.08875 1.59125 -0.5525 0.8075 0 0 Z " fill="#5E92A3" transform="translate(191,167)"/>
<path d="M0 0 C2 2 2 2 2 5 C3.31266518 6.35368596 4.64567325 7.68799596 6 9 C6 9.66 6 10.32 6 11 C5.34 11 4.68 11 4 11 C3.195625 10.175 2.39125 9.35 1.5625 8.5 C-0.76122416 5.65083807 -0.76122416 5.65083807 -4 6 C-2.84826645 3.53199953 -1.95216435 1.95216435 0 0 Z " fill="#D1E4F8" transform="translate(245,168)"/>
<path d="M0 0 C0.66 0.33 1.32 0.66 2 1 C2.33 1 2.66 1 3 1 C4.32 1 5.64 1 7 1 C7 2.65 7 4.3 7 6 C6.01 6.33 5.02 6.66 4 7 C4 6.01 4 5.02 4 4 C2.68 4.33 1.36 4.66 0 5 C-0.5625 3.0625 -0.5625 3.0625 -1 1 C-0.67 0.67 -0.34 0.34 0 0 Z " fill="#D2E5F7" transform="translate(260,149)"/>
<path d="M0 0 C2.5625 0.1875 2.5625 0.1875 4.5625 2.1875 C4.1875 4.3125 4.1875 4.3125 3.5625 6.1875 C2.9025 6.1875 2.2425 6.1875 1.5625 6.1875 C1.5625 5.1975 1.5625 4.2075 1.5625 3.1875 C0.5725 3.1875 -0.4175 3.1875 -1.4375 3.1875 C-1.4375 4.1775 -1.4375 5.1675 -1.4375 6.1875 C-2.4275 5.8575 -3.4175 5.5275 -4.4375 5.1875 C-3.32386364 0.25568182 -3.32386364 0.25568182 0 0 Z " fill="#FCD9B8" transform="translate(121.4375,128.8125)"/>
<path d="M0 0 C2.125 0.375 2.125 0.375 4 1 C4 1.66 4 2.32 4 3 C3.01 3 2.02 3 1 3 C0.67 4.32 0.34 5.64 0 7 C1.32 6.67 2.64 6.34 4 6 C3.67 6.99 3.34 7.98 3 9 C-0.875 8.125 -0.875 8.125 -2 7 C-2.1875 4.5625 -2.1875 4.5625 -2 2 C-1.34 1.34 -0.68 0.68 0 0 Z " fill="#F4CDC9" transform="translate(192,49)"/>
<path d="M0 0 C2.97 0.495 2.97 0.495 6 1 C6 2.98 6 4.96 6 7 C5.01 6.34 4.02 5.68 3 5 C2.67 5.33 2.34 5.66 2 6 C2.66 6.66 3.32 7.32 4 8 C2.35 8 0.7 8 -1 8 C-0.690625 7.401875 -0.38125 6.80375 -0.0625 6.1875 C1.10209704 3.91043228 1.10209704 3.91043228 2 1 C1.34 0.67 0.68 0.34 0 0 Z " fill="#686868" transform="translate(214,267)"/>
<path d="M0 0 C0.66 0 1.32 0 2 0 C2 0.66 2 1.32 2 2 C-2.34461907 6.23600359 -6.25504412 8.1180317 -12 10 C-12.33 9.34 -12.66 8.68 -13 8 C-12.14535156 7.50628906 -11.29070312 7.01257813 -10.41015625 6.50390625 C-9.30542969 5.86324219 -8.20070312 5.22257813 -7.0625 4.5625 C-5.96035156 3.92441406 -4.85820312 3.28632813 -3.72265625 2.62890625 C-1.1716429 1.25289773 -1.1716429 1.25289773 0 0 Z " fill="#E7F2FB" transform="translate(245,193)"/>
<path d="M0 0 C0.66 1.32 1.32 2.64 2 4 C1.34 4 0.68 4 0 4 C0.04125 5.216875 0.0825 6.43375 0.125 7.6875 C0.13754508 11.21894127 -0.40001783 13.80003566 -2 17 C-2.33 17 -2.66 17 -3 17 C-3.34548714 10.66606918 -2.29342747 5.89738492 0 0 Z " fill="#FCE8D5" transform="translate(141,103)"/>
<path d="M0 0 C1.32 0.33 2.64 0.66 4 1 C3.67 1.66 3.34 2.32 3 3 C3 3.33 3 3.66 3 4 C3 5.32 3 6.64 3 8 C1.35 8 -0.3 8 -2 8 C-2.33 7.01 -2.66 6.02 -3 5 C-2.34 5 -1.68 5 -1 5 C-1 5.66 -1 6.32 -1 7 C-0.34 7 0.32 7 1 7 C0.34 6.01 -0.32 5.02 -1 4 C-0.625 1.8125 -0.625 1.8125 0 0 Z " fill="#FBD6D3" transform="translate(226,57)"/>
<path d="M0 0 C1.2065625 0.0309375 1.2065625 0.0309375 2.4375 0.0625 C2.4375 1.3825 2.4375 2.7025 2.4375 4.0625 C0.4575 4.3925 -1.5225 4.7225 -3.5625 5.0625 C-3.5625 0.08689024 -3.5625 0.08689024 0 0 Z " fill="#D9895D" transform="translate(128.5625,148.9375)"/>
<path d="M0 0 C8.415 1.485 8.415 1.485 17 3 C17 3.33 17 3.66 17 4 C16.40832031 3.98839844 15.81664062 3.97679688 15.20703125 3.96484375 C10.99768215 3.91677614 7.1077667 3.93993117 3 5 C3.33 4.34 3.66 3.68 4 3 C2.68 2.67 1.36 2.34 0 2 C0 1.34 0 0.68 0 0 Z " fill="#EFDEE0" transform="translate(248,99)"/>
<path d="M0 0 C1.32 0 2.64 0 4 0 C4 1.32 4 2.64 4 4 C2.68 4 1.36 4 0 4 C0 4.66 0 5.32 0 6 C1.98 6.495 1.98 6.495 4 7 C2.0625 7.5625 2.0625 7.5625 0 8 C-1 7 -1 7 -1.125 4 C-1 1 -1 1 0 0 Z " fill="#F1D3D2" transform="translate(199,50)"/>
<path d="M0 0 C0.33 0.66 0.66 1.32 1 2 C0.34 2 -0.32 2 -1 2 C-1 2.66 -1 3.32 -1 4 C0.65 3.67 2.3 3.34 4 3 C1.82575883 5.50037734 0.26954202 6.43628586 -3 7 C-3.66 5.68 -4.32 4.36 -5 3 C-3.35 2.01 -1.7 1.02 0 0 Z " fill="#5F8A92" transform="translate(150,149)"/>
<path d="M0 0 C0.99 0 1.98 0 3 0 C2.67 2.31 2.34 4.62 2 7 C0.68 7 -0.64 7 -2 7 C-1.125 1.125 -1.125 1.125 0 0 Z " fill="#BA6A67" transform="translate(212,51)"/>
<path d="M0 0 C1.32 0.33 2.64 0.66 4 1 C3.01 1.495 3.01 1.495 2 2 C2.33 2.99 2.66 3.98 3 5 C3.66 5.33 4.32 5.66 5 6 C5 5.01 5 4.02 5 3 C5.66 3 6.32 3 7 3 C6.67 4.32 6.34 5.64 6 7 C4.125 7.625 4.125 7.625 2 8 C0 6 0 6 -0.125 2.875 C-0.08375 1.92625 -0.0425 0.9775 0 0 Z " fill="#C9DCF2" transform="translate(230,184)"/>
<path d="M0 0 C0.66 0 1.32 0 2 0 C1.67 2.97 1.34 5.94 1 9 C0.34 9 -0.32 9 -1 9 C-2.6875 6.6875 -2.6875 6.6875 -4 4 C-3.67 3.01 -3.34 2.02 -3 1 C-2.34 1.99 -1.68 2.98 -1 4 C-0.67 2.68 -0.34 1.36 0 0 Z " fill="#F9D2CE" transform="translate(183,50)"/>
<path d="M0 0 C1.32 0.66 2.64 1.32 4 2 C3.01 2.495 3.01 2.495 2 3 C1.30341637 4.65438613 0.63903117 6.32254318 0 8 C-0.99 9.485 -0.99 9.485 -2 11 C-2 10.01 -2 9.02 -2 8 C-2.99 7.67 -3.98 7.34 -5 7 C-4.175 6.401875 -3.35 5.80375 -2.5 5.1875 C-1.2625 4.1046875 -1.2625 4.1046875 0 3 C0 2.01 0 1.02 0 0 Z " fill="#DC956B" transform="translate(146,174)"/>
<path d="M0 0 C0.33 0.66 0.66 1.32 1 2 C0.67 2.66 0.34 3.32 0 4 C0.66 4 1.32 4 2 4 C2.33 3.01 2.66 2.02 3 1 C3.66 2.98 4.32 4.96 5 7 C2.36 7 -0.28 7 -3 7 C-3.33 6.34 -3.66 5.68 -4 5 C-3.34 4.67 -2.68 4.34 -2 4 C-0.86649466 1.98330173 -0.86649466 1.98330173 0 0 Z " fill="#4F8494" transform="translate(180,164)"/>
<path d="M0 0 C2.475 0.99 2.475 0.99 5 2 C4.46375 2.20625 3.9275 2.4125 3.375 2.625 C-0.0017654 4.57996944 -2.30474839 7.18223695 -5 10 C-5.66 9.67 -6.32 9.34 -7 9 C-6.57847656 8.51789063 -6.15695313 8.03578125 -5.72265625 7.5390625 C-5.17480469 6.90742188 -4.62695312 6.27578125 -4.0625 5.625 C-3.51722656 4.99851563 -2.97195312 4.37203125 -2.41015625 3.7265625 C-0.93041376 2.04367666 -0.93041376 2.04367666 0 0 Z " fill="#DFF1F7" transform="translate(237,150)"/>
<path d="M0 0 C0.66 0 1.32 0 2 0 C2 1.32 2 2.64 2 4 C2.66 4 3.32 4 4 4 C4.33 3.01 4.66 2.02 5 1 C5 2.32 5 3.64 5 5 C5.99 5.33 6.98 5.66 8 6 C7 7 7 7 3.9375 7.0625 C2.968125 7.041875 1.99875 7.02125 1 7 C0.67 4.69 0.34 2.38 0 0 Z " fill="#DA9870" transform="translate(117,106)"/>
<path d="M0 0 C0.33 0.99 0.66 1.98 1 3 C-0.21484375 4.82421875 -0.21484375 4.82421875 -1.9375 6.6875 C-2.50339844 7.31011719 -3.06929687 7.93273437 -3.65234375 8.57421875 C-4.09707031 9.04472656 -4.54179687 9.51523438 -5 10 C-5.99 9.67 -6.98 9.34 -8 9 C-6.85459775 7.68712379 -5.70866567 6.37470979 -4.5625 5.0625 C-3.92441406 4.33160156 -3.28632813 3.60070312 -2.62890625 2.84765625 C-1.77458541 1.87860647 -0.91348825 0.91348825 0 0 Z " fill="#5A8D9C" transform="translate(162,86)"/>
<path d="M0 0 C4.75 0.875 4.75 0.875 7 2 C7 3.98 7 5.96 7 8 C6.34 8 5.68 8 5 8 C5 6.35 5 4.7 5 3 C3.68 3.33 2.36 3.66 1 4 C0.67 2.68 0.34 1.36 0 0 Z " fill="#F6CFCD" transform="translate(210,48)"/>
<path d="M0 0 C0.33 0.66 0.66 1.32 1 2 C1.99 2 2.98 2 4 2 C4.33 1.34 4.66 0.68 5 0 C5 0.66 5 1.32 5 2 C5.66 2.33 6.32 2.66 7 3 C6.34 3 5.68 3 5 3 C5 4.32 5 5.64 5 7 C5.66 7.33 6.32 7.66 7 8 C6.01 8 5.02 8 4 8 C4 6.35 4 4.7 4 3 C3.01 3 2.02 3 1 3 C1 4.32 1 5.64 1 7 C1.66 7.33 2.32 7.66 3 8 C2.01 8 1.02 8 0 8 C0 5.36 0 2.72 0 0 Z " fill="#4B4B4B" transform="translate(137,267)"/>
<path d="M0 0 C3.63 0.33 7.26 0.66 11 1 C11 1.99 11 2.98 11 4 C9.54119891 3.85892253 8.08296449 3.71197585 6.625 3.5625 C5.40683594 3.44068359 5.40683594 3.44068359 4.1640625 3.31640625 C2 3 2 3 0 2 C0 1.34 0 0.68 0 0 Z " fill="#C9DCF1" transform="translate(260,140)"/>
<path d="M0 0 C0.66 0.33 1.32 0.66 2 1 C-3.445 5.455 -3.445 5.455 -9 10 C-9.66 9.67 -10.32 9.34 -11 9 C-9.54405245 7.68485396 -8.08516421 6.37296283 -6.625 5.0625 C-5.81289062 4.33160156 -5.00078125 3.60070312 -4.1640625 2.84765625 C-2 1 -2 1 0 0 Z " fill="#FDEBE8" transform="translate(165,75)"/>
<path d="M0 0 C1.2065625 0.0309375 1.2065625 0.0309375 2.4375 0.0625 C2.1075 1.3825 1.7775 2.7025 1.4375 4.0625 C1.1075 3.4025 0.7775 2.7425 0.4375 2.0625 C-0.2225 2.7225 -0.8825 3.3825 -1.5625 4.0625 C-2.2225 3.7325 -2.8825 3.4025 -3.5625 3.0625 C-3.5625 3.7225 -3.5625 4.3825 -3.5625 5.0625 C-2.9025 5.0625 -2.2425 5.0625 -1.5625 5.0625 C-1.5625 5.7225 -1.5625 6.3825 -1.5625 7.0625 C-2.5525 6.7325 -3.5425 6.4025 -4.5625 6.0625 C-3.48963568 0.08511307 -3.48963568 0.08511307 0 0 Z " fill="#FDE8CA" transform="translate(135.5625,163.9375)"/>
<path d="M0 0 C0.66 0.66 1.32 1.32 2 2 C5.59679066 1.67673447 5.59679066 1.67673447 9 1 C8.34 2.32 7.68 3.64 7 5 C5.02 5 3.04 5 1 5 C0.34 3.68 -0.32 2.36 -1 1 C-0.67 0.67 -0.34 0.34 0 0 Z " fill="#FDE6CF" transform="translate(123,151)"/>
<path d="M0 0 C1.69141656 0.08963062 3.37959602 0.24577676 5.0625 0.4375 C6.44115234 0.59025391 6.44115234 0.59025391 7.84765625 0.74609375 C8.55792969 0.82988281 9.26820313 0.91367188 10 1 C6.99559979 3.00293347 5.29006055 3.49271626 1.8125 4.125 C0.91144531 4.29257813 0.01039063 4.46015625 -0.91796875 4.6328125 C-1.60503906 4.75398438 -2.29210937 4.87515625 -3 5 C-1.125 1.125 -1.125 1.125 0 0 Z " fill="#B76866" transform="translate(130,68)"/>
<path d="M0 0 C0.99 0 1.98 0 3 0 C3 1.65 3 3.3 3 5 C1.68 4.67 0.36 4.34 -1 4 C-1 4.66 -1 5.32 -1 6 C-0.01 6.33 0.98 6.66 2 7 C0.35 6.67 -1.3 6.34 -3 6 C-2.67 4.35 -2.34 2.7 -2 1 C-0.68 1.66 0.64 2.32 2 3 C2 2.34 2 1.68 2 1 C1.34 0.67 0.68 0.34 0 0 Z " fill="#FDE1DD" transform="translate(220,55)"/>
<path d="M0 0 C0.66 0.33 1.32 0.66 2 1 C1 4 1 4 -2 6 C-2.33 6.99 -2.66 7.98 -3 9 C-3.66 9 -4.32 9 -5 9 C-4.5206753 4.68607774 -3.2542015 2.83430453 0 0 Z " fill="#FEE3C6" transform="translate(150,176)"/>
<path d="M0 0 C2 0.25 2 0.25 4 1 C4.33 1.99 4.66 2.98 5 4 C3.35 4.33 1.7 4.66 0 5 C-0.5625 3.0625 -0.5625 3.0625 -1 1 C-0.67 0.67 -0.34 0.34 0 0 Z " fill="#AFAFAF" transform="translate(184,270)"/>
<path d="M0 0 C0.33 0 0.66 0 1 0 C1.33 2.97 1.66 5.94 2 9 C0.35 7.68 -1.3 6.36 -3 5 C-1.125 1.125 -1.125 1.125 0 0 Z " fill="#FFEBDD" transform="translate(176,193)"/>
<path d="M0 0 C1.98 0 3.96 0 6 0 C5.67 0.99 5.34 1.98 5 3 C3.02 3.33 1.04 3.66 -1 4 C-0.67 2.68 -0.34 1.36 0 0 Z " fill="#4F8799" transform="translate(203,160)"/>
<path d="M0 0 C1.65 0 3.3 0 5 0 C4.67 0.66 4.34 1.32 4 2 C4.99 2.33 5.98 2.66 7 3 C7 3.66 7 4.32 7 5 C4.23723823 4.47731534 1.6739124 3.89130413 -1 3 C-0.67 2.01 -0.34 1.02 0 0 Z " fill="#FDE0C2" transform="translate(118,119)"/>
<path d="M0 0 C1.65 0 3.3 0 5 0 C5.33 0.99 5.66 1.98 6 3 C4.68 3 3.36 3 2 3 C2 3.66 2 4.32 2 5 C1.01 4.67 0.02 4.34 -1 4 C-0.67 2.68 -0.34 1.36 0 0 Z " fill="#CAE0F4" transform="translate(199,191)"/>
<path d="M0 0 C0.33 0 0.66 0 1 0 C1 2.97 1 5.94 1 9 C-3.875 4.25 -3.875 4.25 -5 2 C-3.02 2.99 -3.02 2.99 -1 4 C-0.67 2.68 -0.34 1.36 0 0 Z " fill="#D4E9F5" transform="translate(223,188)"/>
<path d="M0 0 C0.66 0 1.32 0 2 0 C0.7580393 3.43927579 -0.55740284 6.25207819 -3 9 C-3.66 9 -4.32 9 -5 9 C-3.7580393 5.56072421 -2.44259716 2.74792181 0 0 Z " fill="#FCD5B5" transform="translate(153,178)"/>
<path d="M0 0 C0.66 0 1.32 0 2 0 C3.78305524 2.63892176 4.99059621 4.97178863 6 8 C2.63279613 6.60667426 1.0140476 5.0210714 -1 2 C-0.67 1.34 -0.34 0.68 0 0 Z " fill="#C5DCF3" transform="translate(249,167)"/>
<path d="M0 0 C0.33 0.99 0.66 1.98 1 3 C0.01 4.485 0.01 4.485 -1 6 C-2.32 6 -3.64 6 -5 6 C-5 5.34 -5 4.68 -5 4 C-4.34 3.67 -3.68 3.34 -3 3 C-3.33 2.34 -3.66 1.68 -4 1 C-2 0 -2 0 0 0 Z " fill="#E8B390" transform="translate(133,156)"/>
<path d="M0 0 C0.66 0.66 1.32 1.32 2 2 C5.09926819 1.67801034 5.09926819 1.67801034 8 1 C6.515 3.475 6.515 3.475 5 6 C2.525 5.01 2.525 5.01 0 4 C0 2.68 0 1.36 0 0 Z " fill="#4D689A" transform="translate(258,151)"/>
<path d="M0 0 C2.64 0.33 5.28 0.66 8 1 C8 1.66 8 2.32 8 3 C5.36 3 2.72 3 0 3 C0 2.01 0 1.02 0 0 Z " fill="#ECF3FA" transform="translate(256,102)"/>
<path d="M0 0 C2.31 0.66 4.62 1.32 7 2 C6.67 3.32 6.34 4.64 6 6 C5.67 5.01 5.34 4.02 5 3 C2.23723823 3.52268466 -0.3260876 4.10869587 -3 5 C-2.67 4.01 -2.34 3.02 -2 2 C-1.34 2 -0.68 2 0 2 C0 1.34 0 0.68 0 0 Z " fill="#D5855A" transform="translate(126,96)"/>
<path d="M0 0 C1.485 0.99 1.485 0.99 3 2 C3.33 1.67 3.66 1.34 4 1 C4.33 2.32 4.66 3.64 5 5 C3.02 5 1.04 5 -1 5 C-0.67 3.35 -0.34 1.7 0 0 Z " fill="#C47671" transform="translate(193,51)"/>
<path d="M0 0 C0.66 0.33 1.32 0.66 2 1 C1.67 3.31 1.34 5.62 1 8 C0.01 8 -0.98 8 -2 8 C-1.125 1.125 -1.125 1.125 0 0 Z " fill="#4D6CA1" transform="translate(218,191)"/>
<path d="M0 0 C2.125 0.375 2.125 0.375 4 1 C4 1.66 4 2.32 4 3 C1.36 3.99 -1.28 4.98 -4 6 C-2.84826645 3.53199953 -1.95216435 1.95216435 0 0 Z " fill="#FCE0C5" transform="translate(139,169)"/>
<path d="M0 0 C1.90318884 2.85478326 2.4619099 4.41941308 3.125 7.6875 C3.29257813 8.49574219 3.46015625 9.30398437 3.6328125 10.13671875 C3.75398437 10.75160156 3.87515625 11.36648437 4 12 C3.01 11.67 2.02 11.34 1 11 C0.67 7.37 0.34 3.74 0 0 Z " fill="#DC976E" transform="translate(144,85)"/>
<path d="M0 0 C2.0625 0.4375 2.0625 0.4375 4 1 C4 1.66 4 2.32 4 3 C2.68 2.67 1.36 2.34 0 2 C0 2.99 0 3.98 0 5 C0.66 5.33 1.32 5.66 2 6 C0.68 5.67 -0.64 5.34 -2 5 C-1.125 1.125 -1.125 1.125 0 0 Z " fill="#FCDEDB" transform="translate(160,54)"/>
<path d="M0 0 C3.3 0.99 6.6 1.98 10 3 C10 3.33 10 3.66 10 4 C7.69 4 5.38 4 3 4 C3 3.34 3 2.68 3 2 C2.01 2 1.02 2 0 2 C0 1.34 0 0.68 0 0 Z " fill="#FEEEDD" transform="translate(160,203)"/>
<path d="M0 0 C1.65 0.33 3.3 0.66 5 1 C4.01 1.495 4.01 1.495 3 2 C3 2.66 3 3.32 3 4 C1.68 4.33 0.36 4.66 -1 5 C-0.67 3.35 -0.34 1.7 0 0 Z " fill="#EDCCB0" transform="translate(140,175)"/>
<path d="M0 0 C0.99 0.33 1.98 0.66 3 1 C2.34 2.65 1.68 4.3 1 6 C-0.32 6 -1.64 6 -3 6 C-2.67 5.34 -2.34 4.68 -2 4 C-1.34 4.33 -0.68 4.66 0 5 C-0.2784375 4.0409375 -0.2784375 4.0409375 -0.5625 3.0625 C-0.706875 2.381875 -0.85125 1.70125 -1 1 C-0.67 0.67 -0.34 0.34 0 0 Z " fill="#BAE2EB" transform="translate(168,154)"/>
<path d="M0 0 C0.66 0.33 1.32 0.66 2 1 C1.75 2.875 1.75 2.875 1 5 C-1.0625 6.25 -1.0625 6.25 -3 7 C-1.125 2.25 -1.125 2.25 0 0 Z " fill="#598D9E" transform="translate(153,96)"/>
<path d="M0 0 C1.32 0.33 2.64 0.66 4 1 C3.195625 1.61875 2.39125 2.2375 1.5625 2.875 C-1.03874519 4.74164041 -1.03874519 4.74164041 -2 7 C-2.99 6.67 -3.98 6.34 -5 6 C-3.35 4.02 -1.7 2.04 0 0 Z " fill="#B26A63" transform="translate(240,67)"/>
<path d="M0 0 C1.32 0.33 2.64 0.66 4 1 C3.67 1.99 3.34 2.98 3 4 C2.65772583 5.33106622 2.32248257 6.66400079 2 8 C0.23537317 4.91190305 0 3.76687864 0 0 Z " fill="#F9D5D2" transform="translate(174,52)"/>
<path d="M0 0 C0.99 0.33 1.98 0.66 3 1 C3 2.66666667 3 4.33333333 3 6 C1.68 6 0.36 6 -1 6 C-1 2 -1 2 0 0 Z " fill="#7E7E7E" transform="translate(155,269)"/>
<path d="M0 0 C2.0625 0.4375 2.0625 0.4375 4 1 C4 1.99 4 2.98 4 4 C2.68 4.33 1.36 4.66 0 5 C-0.5625 3.0625 -0.5625 3.0625 -1 1 C-0.67 0.67 -0.34 0.34 0 0 Z " fill="#F0F0F0" transform="translate(248,270)"/>
<path d="M0 0 C1.5625 1.25 1.5625 1.25 3 3 C2.8125 5.125 2.8125 5.125 2 7 C1.01 7.495 1.01 7.495 0 8 C0 5.36 0 2.72 0 0 Z " fill="#365993" transform="translate(225,189)"/>
<path d="M0 0 C1.32 0.33 2.64 0.66 4 1 C3.67 3.31 3.34 5.62 3 8 C0.4345406 5.4345406 0.45953913 3.52313332 0 0 Z " fill="#CCE3F7" transform="translate(214,191)"/>
<path d="M0 0 C1.125 1.6875 1.125 1.6875 2 4 C1.125 6.75 1.125 6.75 0 9 C-0.33 8.34 -0.66 7.68 -1 7 C-3.02463255 6.34786708 -3.02463255 6.34786708 -5 6 C-4.360625 5.7525 -3.72125 5.505 -3.0625 5.25 C-0.81258459 4.18437567 -0.81258459 4.18437567 -0.25 1.875 C-0.1675 1.25625 -0.085 0.6375 0 0 Z " fill="#DB966F" transform="translate(159,185)"/>
<path d="M0 0 C0.99 0.99 1.98 1.98 3 3 C2.01 3.99 1.02 4.98 0 6 C-0.33 5.34 -0.66 4.68 -1 4 C-1.66 4 -2.32 4 -3 4 C-3 3.34 -3 2.68 -3 2 C-2.34 2 -1.68 2 -1 2 C-0.67 1.34 -0.34 0.68 0 0 Z " fill="#E0B493" transform="translate(135,165)"/>
<path d="M0 0 C2.875 0.25 2.875 0.25 6 1 C7.375 3.0625 7.375 3.0625 8 5 C5.36 4.01 2.72 3.02 0 2 C0 1.34 0 0.68 0 0 Z " fill="#556F9E" transform="translate(262,143)"/>
<path d="M0 0 C0.66 0 1.32 0 2 0 C1.37240135 2.92879371 0.41377341 5.36095629 -1 8 C-1.66 8 -2.32 8 -3 8 C-1.125 2.25 -1.125 2.25 0 0 Z " fill="#F3C7C2" transform="translate(232,60)"/>
</svg>
