<?xml version="1.0" encoding="UTF-8"?>
<svg version="1.1" xmlns="http://www.w3.org/2000/svg" width="259" height="194">
<path d="M0 0 C85.47 0 170.94 0 259 0 C259 64.02 259 128.04 259 194 C173.53 194 88.06 194 0 194 C0 129.98 0 65.96 0 0 Z " fill="#045C7A" transform="translate(0,0)"/>
<path d="M0 0 C85.47 0 170.94 0 259 0 C259 64.02 259 128.04 259 194 C253.72 194 248.44 194 243 194 C242.67 186.08 242.34 178.16 242 170 C232.1 169.67 222.2 169.34 212 169 C211.5625 157.625 211.5625 157.625 211.43188477 154.04150391 C211.39377686 153.11257324 211.35566895 152.18364258 211.31640625 151.2265625 C211.27974854 150.27346191 211.24309082 149.32036133 211.20532227 148.33837891 C211.14236535 145.97867651 211.14236535 145.97867651 210 144 C200.76 143.67 191.52 143.34 182 143 C181.67 135.41 181.34 127.82 181 120 C178.20879909 118.60439955 175.79794308 118.78191712 172.6796875 118.68359375 C171.42285156 118.64169922 170.16601562 118.59980469 168.87109375 118.55664062 C167.55238281 118.51732422 166.23367187 118.47800781 164.875 118.4375 C163.53514249 118.39430488 162.19529844 118.35069027 160.85546875 118.30664062 C157.57042185 118.20029019 154.28529719 118.09826192 151 118 C150.97494385 117.30849854 150.9498877 116.61699707 150.92407227 115.90454102 C150.80847839 112.79032134 150.68558758 109.67643211 150.5625 106.5625 C150.52318359 105.47388672 150.48386719 104.38527344 150.44335938 103.26367188 C150.38051758 101.71196289 150.38051758 101.71196289 150.31640625 100.12890625 C150.27974854 99.17056885 150.24309082 98.21223145 150.20532227 97.22485352 C150.24165576 95.02861075 150.24165576 95.02861075 149 94 C146.85613343 93.84141158 144.70733162 93.74870702 142.55859375 93.68359375 C141.25341797 93.64169922 139.94824219 93.59980469 138.60351562 93.55664062 C137.2148467 93.51682392 135.82617478 93.47711175 134.4375 93.4375 C133.04490817 93.39432011 131.65232972 93.350706 130.25976562 93.30664062 C126.83997451 93.20014194 123.42000104 93.09952944 120 93 C119.67 85.08 119.34 77.16 119 69 C104.15 68.505 104.15 68.505 89 68 C88.5625 56.125 88.5625 56.125 88.43188477 52.38330078 C88.39377686 51.41376465 88.35566895 50.44422852 88.31640625 49.4453125 C88.27974854 48.45031738 88.24309082 47.45532227 88.20532227 46.43017578 C88.15040468 43.99220499 88.15040468 43.99220499 87 42 C87.66 42 88.32 42 89 42 C88.96044102 40.07690578 88.96044102 40.07690578 88 38 C86.00854609 36.98308736 84.00812926 35.98357352 82 35 C79.53770611 31.26126613 79.68106332 27.59257616 79.5390625 23.2421875 C79.36117187 22.50226562 79.18328125 21.76234375 79 21 C77.12932173 19.79639605 77.12932173 19.79639605 75 19 C74.195625 18.154375 73.39125 17.30875 72.5625 16.4375 C70.20655407 13.9585904 70.20655407 13.9585904 67.625 12.8125 C63.36124589 13.11705387 60.93600291 16.0809193 58 19 C59.78882624 22.71525449 61.24296213 25.22483623 65.125 26.9375 C67 28 67 28 67.75 30.125 C67.8325 30.74375 67.915 31.3625 68 32 C68.99 32 69.98 32 71 32 C71.9765625 33.79036458 72.953125 35.58072917 73.9296875 37.37109375 C74.91410024 39.16618315 74.91410024 39.16618315 77 40 C77 40.66 77 41.32 77 42 C51.59 42 26.18 42 0 42 C0 28.14 0 14.28 0 0 Z " fill="#FDFEFE" transform="translate(0,0)"/>
<path d="M0 0 C42.9 0 85.8 0 130 0 C130 0.99 130 1.98 130 3 C128.3767313 3.6708712 126.75132422 4.33657029 125.125 5 C124.22007813 5.37125 123.31515625 5.7425 122.3828125 6.125 C120 7 120 7 118 7 C118.165 7.99 118.33 8.98 118.5 10 C119.64460633 18.41622305 118.49360173 24.92548011 116 33 C117.093125 33.28875 118.18625 33.5775 119.3125 33.875 C123 35 123 35 126 37 C126 37.66 126 38.32 126 39 C126.75152344 39.24492188 127.50304687 39.48984375 128.27734375 39.7421875 C135.04464949 42.86854682 139.30202508 51.27736003 142 58 C142.75180221 60.29107607 143.50162805 62.58280116 144.25 64.875 C146.66430352 71.80590825 149.9768749 76.7045368 155 82 C155.845625 82.94875 156.69125 83.8975 157.5625 84.875 C167.2199808 92.02305666 181.17452745 91.50782554 192.54785156 91.67285156 C204.00278239 91.86405678 215.64856589 92.77770973 224.8125 100.3125 C230.5309905 107.33807404 232.45105727 114.50615792 234.625 123.1875 C235.21748717 125.51531059 235.81368757 127.84218004 236.4140625 130.16796875 C236.80005615 131.70360474 236.80005615 131.70360474 237.19384766 133.27026367 C237.9209728 135.73240365 238.67449709 137.80607503 240 140 C240.66 140.33 241.32 140.66 242 141 C242.474375 142.134375 242.94875 143.26875 243.4375 144.4375 C244.70190988 148.19068113 244.70190988 148.19068113 248 150 C248 150.66 248 151.32 248 152 C248.70125 152.268125 249.4025 152.53625 250.125 152.8125 C253.14835036 154.06127515 256.07424036 155.53712018 259 157 C259 169.21 259 181.42 259 194 C253.72 194 248.44 194 243 194 C242.67 186.08 242.34 178.16 242 170 C232.1 169.67 222.2 169.34 212 169 C211.5625 157.625 211.5625 157.625 211.43188477 154.04150391 C211.39377686 153.11257324 211.35566895 152.18364258 211.31640625 151.2265625 C211.27974854 150.27346191 211.24309082 149.32036133 211.20532227 148.33837891 C211.14236535 145.97867651 211.14236535 145.97867651 210 144 C200.76 143.67 191.52 143.34 182 143 C181.67 135.41 181.34 127.82 181 120 C178.20879909 118.60439955 175.79794308 118.78191712 172.6796875 118.68359375 C171.42285156 118.64169922 170.16601562 118.59980469 168.87109375 118.55664062 C167.55238281 118.51732422 166.23367187 118.47800781 164.875 118.4375 C163.53514249 118.39430488 162.19529844 118.35069027 160.85546875 118.30664062 C157.57042185 118.20029019 154.28529719 118.09826192 151 118 C150.97494385 117.30849854 150.9498877 116.61699707 150.92407227 115.90454102 C150.80847839 112.79032134 150.68558758 109.67643211 150.5625 106.5625 C150.52318359 105.47388672 150.48386719 104.38527344 150.44335938 103.26367188 C150.38051758 101.71196289 150.38051758 101.71196289 150.31640625 100.12890625 C150.27974854 99.17056885 150.24309082 98.21223145 150.20532227 97.22485352 C150.24165576 95.02861075 150.24165576 95.02861075 149 94 C146.85613343 93.84141158 144.70733162 93.74870702 142.55859375 93.68359375 C141.25341797 93.64169922 139.94824219 93.59980469 138.60351562 93.55664062 C137.2148467 93.51682392 135.82617478 93.47711175 134.4375 93.4375 C133.04490817 93.39432011 131.65232972 93.350706 130.25976562 93.30664062 C126.83997451 93.20014194 123.42000104 93.09952944 120 93 C119.67 85.08 119.34 77.16 119 69 C104.15 68.505 104.15 68.505 89 68 C88.5625 56.125 88.5625 56.125 88.43188477 52.38330078 C88.39377686 51.41376465 88.35566895 50.44422852 88.31640625 49.4453125 C88.27974854 48.45031738 88.24309082 47.45532227 88.20532227 46.43017578 C88.15040468 43.99220499 88.15040468 43.99220499 87 42 C87.66 42 88.32 42 89 42 C88.96044102 40.07690578 88.96044102 40.07690578 88 38 C86.00854609 36.98308736 84.00812926 35.98357352 82 35 C79.53770611 31.26126613 79.68106332 27.59257616 79.5390625 23.2421875 C79.36117187 22.50226562 79.18328125 21.76234375 79 21 C77.12932173 19.79639605 77.12932173 19.79639605 75 19 C74.195625 18.154375 73.39125 17.30875 72.5625 16.4375 C70.20655407 13.9585904 70.20655407 13.9585904 67.625 12.8125 C63.36124589 13.11705387 60.93600291 16.0809193 58 19 C59.78882624 22.71525449 61.24296213 25.22483623 65.125 26.9375 C67 28 67 28 67.75 30.125 C67.8325 30.74375 67.915 31.3625 68 32 C68.99 32 69.98 32 71 32 C71.9765625 33.79036458 72.953125 35.58072917 73.9296875 37.37109375 C74.91410024 39.16618315 74.91410024 39.16618315 77 40 C77 40.66 77 41.32 77 42 C51.59 42 26.18 42 0 42 C0 28.14 0 14.28 0 0 Z " fill="#AFDBF3" transform="translate(0,0)"/>
<path d="M0 0 C0.33 0 0.66 0 1 0 C1 7.59 1 15.18 1 23 C3.99707031 22.94779297 3.99707031 22.94779297 7.0546875 22.89453125 C8.98745608 22.87367404 10.92022743 22.85292202 12.85302734 22.83520508 C14.85919374 22.81267749 16.86516526 22.7745643 18.87109375 22.73632812 C20.12792969 22.72666016 21.38476562 22.71699219 22.6796875 22.70703125 C23.84226074 22.6913208 25.00483398 22.67561035 26.20263672 22.65942383 C27.1257666 22.77181396 28.04889648 22.8842041 29 23 C31.23413013 26.35119519 31.23847762 27.4177755 31.1953125 31.32421875 C31.18564453 32.86625977 31.18564453 32.86625977 31.17578125 34.43945312 C31.15064453 36.04723633 31.15064453 36.04723633 31.125 37.6875 C31.11597656 38.77095703 31.10695312 39.85441406 31.09765625 40.97070312 C31.0740734 43.6473571 31.04116126 46.32356797 31 49 C31.90355225 48.99476318 32.80710449 48.98952637 33.73803711 48.98413086 C37.07951489 48.96712314 40.42094692 48.95456667 43.76245117 48.94506836 C45.21070073 48.94002899 46.65894517 48.93319747 48.10717773 48.92456055 C50.18474588 48.91247753 52.26224697 48.90676789 54.33984375 48.90234375 C55.59144287 48.89710693 56.84304199 48.89187012 58.13256836 48.88647461 C61 49 61 49 62 50 C62 57.92 62 65.84 62 74 C-18.19 74 -98.38 74 -181 74 C-181 57.5 -181 41 -181 24 C-121.27 24 -61.54 24 0 24 C0 16.08 0 8.16 0 0 Z " fill="#029CCA" transform="translate(181,120)"/>
<path d="M0 0 C2.76702964 1.30665288 3.01519992 2.34593983 4.25 5.0625 C6.16666667 6.22916667 6.16666667 6.22916667 8.25 7.0625 C11.25 9.0625 11.25 9.0625 11.953125 11.9609375 C12.13359375 13.10820312 12.3140625 14.25546875 12.5 15.4375 C13.34337462 20.08996711 13.34337462 20.08996711 15.99609375 23.80859375 C18.10402894 25.03278095 18.10402894 25.03278095 21.25 26.0625 C20.9715625 27.2690625 20.9715625 27.2690625 20.6875 28.5 C20.543125 29.345625 20.39875 30.19125 20.25 31.0625 C20.58 31.3925 20.91 31.7225 21.25 32.0625 C21.33726223 33.84321246 21.35699041 35.6273314 21.34765625 37.41015625 C21.34282227 39.02954102 21.34282227 39.02954102 21.33789062 40.68164062 C21.32532227 42.38610352 21.32532227 42.38610352 21.3125 44.125 C21.30798828 45.26517578 21.30347656 46.40535156 21.29882812 47.58007812 C21.28699747 50.40760351 21.2705141 53.2350264 21.25 56.0625 C22.15355225 56.05726318 23.05710449 56.05202637 23.98803711 56.04663086 C27.32951489 56.02962314 30.67094692 56.01706667 34.01245117 56.00756836 C35.46070073 56.00252899 36.90894517 55.99569747 38.35717773 55.98706055 C40.43474588 55.97497753 42.51224697 55.96926789 44.58984375 55.96484375 C45.84144287 55.95960693 47.09304199 55.95437012 48.38256836 55.94897461 C51.25 56.0625 51.25 56.0625 52.25 57.0625 C52.25 64.9825 52.25 72.9025 52.25 81.0625 C12.65 81.0625 -26.95 81.0625 -67.75 81.0625 C-67.75 64.2325 -67.75 47.4025 -67.75 30.0625 C-42.34 30.0625 -16.93 30.0625 9.25 30.0625 C9.25 29.4025 9.25 28.7425 9.25 28.0625 C7.765 27.5675 7.765 27.5675 6.25 27.0625 C3.25 22.72916667 3.25 22.72916667 3.25 20.0625 C2.26 20.0625 1.27 20.0625 0.25 20.0625 C0.023125 19.464375 -0.20375 18.86625 -0.4375 18.25 C-2.10517441 15.47054264 -3.95687116 14.65857362 -6.75 13.0625 C-8.11984198 11.76670353 -9.4651049 10.44257251 -10.75 9.0625 C-8.9836541 4.29336608 -5.26395592 0.11963536 0 0 Z " fill="#0B455B" transform="translate(67.75,11.9375)"/>
<path d="M0 0 C0.33 0 0.66 0 1 0 C1 7.59 1 15.18 1 23 C3.99707031 22.94779297 3.99707031 22.94779297 7.0546875 22.89453125 C8.98745608 22.87367404 10.92022743 22.85292202 12.85302734 22.83520508 C14.85919374 22.81267749 16.86516526 22.7745643 18.87109375 22.73632812 C20.12792969 22.72666016 21.38476562 22.71699219 22.6796875 22.70703125 C23.84226074 22.6913208 25.00483398 22.67561035 26.20263672 22.65942383 C27.1257666 22.77181396 28.04889648 22.8842041 29 23 C31.23413013 26.35119519 31.23847762 27.4177755 31.1953125 31.32421875 C31.19031738 32.25065186 31.18532227 33.17708496 31.18017578 34.1315918 C31.16196777 35.3050415 31.14375977 36.47849121 31.125 37.6875 C31.08375 41.420625 31.0425 45.15375 31 49 C40.9 49 50.8 49 61 49 C59 51 59 51 56.88824177 51.140275 C55.99557197 51.08992068 55.10290216 51.03956636 54.18318176 50.98768616 C52.61268963 50.9126985 52.61268963 50.9126985 51.01047039 50.83619595 C49.2414875 50.74144277 49.2414875 50.74144277 47.43676758 50.64477539 C44.76191703 50.52810268 42.087387 50.41597751 39.41201782 50.3130188 C38.67830426 50.28476916 37.9445907 50.25651952 37.1886434 50.22741383 C27.24178318 49.86953558 17.29088833 49.84165451 7.33862305 49.79467773 C5.79409169 49.78688252 5.79409169 49.78688252 4.21835768 49.77892983 C-2.37023277 49.74646861 -8.95883668 49.72066543 -15.5474627 49.69667697 C-21.38364053 49.67448574 -27.21979508 49.64726259 -33.05595398 49.62062073 C-44.05871637 49.57113378 -55.06149198 49.52603585 -66.06427974 49.48259836 C-78.61128279 49.43284456 -91.15826245 49.37807061 -103.70524275 49.32291877 C-129.47014006 49.2097761 -155.23506021 49.10297344 -181 49 C-181 40.75 -181 32.5 -181 24 C-121.27 24 -61.54 24 0 24 C0 16.08 0 8.16 0 0 Z " fill="#048BB7" transform="translate(181,120)"/>
<path d="M0 0 C42.9 0 85.8 0 130 0 C130 0.99 130 1.98 130 3 C128.3767313 3.6708712 126.75132422 4.33657029 125.125 5 C124.22007813 5.37125 123.31515625 5.7425 122.3828125 6.125 C120 7 120 7 118 7 C118.165 7.99 118.33 8.98 118.5 10 C119.84212199 18.05273193 118.53477594 25.07282849 116.5625 32.875 C116.33240234 33.82375 116.10230469 34.7725 115.86523438 35.75 C114.16462054 42.67075893 114.16462054 42.67075893 113 45 C112.5258693 48.16087132 112.2544325 49.98409537 113 53 C116.73096979 57.8962297 121.62099852 59.37194761 127.5 60.375 C129.33060394 60.60609109 131.16342843 60.82246475 133 61 C133 62.32 133 63.64 133 65 C128.64417794 66.07403832 124.39634885 66.14952163 119.9375 66.125 C119.23044922 66.12886719 118.52339844 66.13273437 117.79492188 66.13671875 C114.34849817 66.13024659 111.31458144 65.8960149 108 65 C104.60187453 64.73860573 101.20422778 64.55683949 97.80078125 64.37890625 C96.87652344 64.25386719 95.95226562 64.12882812 95 64 C93.63047327 61.26094655 93.87378639 59.02912668 94 56 C94.495 55.01 94.495 55.01 95 54 C95.13267356 51.9391374 95.23089203 49.87601571 95.3125 47.8125 C95.74093541 40.9926511 97.14444493 34.9189526 99.0625 28.375 C99.93911377 25.21919044 100.70336411 22.26299479 101 19 C100.01 17.515 100.01 17.515 99 16 C94.96918659 16.64820844 91.54875068 17.93340188 87.8125 19.5625 C82.21246459 22 82.21246459 22 80 22 C79.67 22.66 79.34 23.32 79 24 C79 23.01 79 22.02 79 21 C78.443125 20.773125 77.88625 20.54625 77.3125 20.3125 C75 19 75 19 72.5625 16.4375 C70.20655407 13.9585904 70.20655407 13.9585904 67.625 12.8125 C63.36124589 13.11705387 60.93600291 16.0809193 58 19 C59.78882624 22.71525449 61.24296213 25.22483623 65.125 26.9375 C67 28 67 28 67.75 30.125 C67.8325 30.74375 67.915 31.3625 68 32 C68.99 32 69.98 32 71 32 C71.9765625 33.79036458 72.953125 35.58072917 73.9296875 37.37109375 C74.91410024 39.16618315 74.91410024 39.16618315 77 40 C77 40.66 77 41.32 77 42 C51.59 42 26.18 42 0 42 C0 28.14 0 14.28 0 0 Z " fill="#B0DCF3" transform="translate(0,0)"/>
<path d="M0 0 C1.80868813 0.00333092 1.80868813 0.00333092 3.65391541 0.00672913 C4.64899864 0.00651009 4.64899864 0.00651009 5.66418457 0.00628662 C7.86644207 0.00698571 10.06861596 0.01477787 12.27085876 0.02259827 C13.79400588 0.02446246 15.31715359 0.02588636 16.84030151 0.02688599 C20.85657903 0.03071105 24.87282059 0.04054124 28.88908386 0.05158997 C32.98443617 0.06180433 37.07979427 0.06638366 41.17515564 0.07142639 C49.21618779 0.08216352 57.25719069 0.0992398 65.29820251 0.12025452 C66.10598496 1.72079276 66.9120525 3.32219659 67.71739197 4.92396545 C68.16645401 5.8156543 68.61551605 6.70734314 69.07818604 7.62605286 C71.7481237 13.08447335 72.66130138 17.82513637 72.61070251 23.87025452 C72.60506287 24.57690247 72.59942322 25.28355042 72.59361267 26.01161194 C72.36621368 35.86069 69.21472176 45.14958922 63.29820251 53.12025452 C61.10679626 53.92884827 61.10679626 53.92884827 59.29820251 54.12025452 C59.29820251 54.78025452 59.29820251 55.44025452 59.29820251 56.12025452 C57.61851501 57.40931702 57.61851501 57.40931702 55.42320251 58.74525452 C54.70390564 59.19127014 53.98460876 59.63728577 53.24351501 60.09681702 C51.29820251 61.12025452 51.29820251 61.12025452 49.29820251 61.12025452 C49.29820251 61.78025452 49.29820251 62.44025452 49.29820251 63.12025452 C39.60496439 67.21187262 27.86544963 67.92499418 17.71617126 65.13587952 C14.79772625 63.94647551 12.06331279 62.62849648 9.29820251 61.12025452 C8.57890564 60.77478577 7.85960876 60.42931702 7.11851501 60.07337952 C3.08871947 58.03340003 1.32652031 56.08870237 -0.70179749 52.12025452 C-1.67633986 50.74197315 -2.65607796 49.36735937 -3.63929749 47.99525452 C-10.20061593 38.07964609 -11.90730726 28.63222208 -10.41664124 16.87025452 C-9.27498153 11.3725534 -6.26968017 0.27905769 0 0 Z " fill="#B0DCF3" transform="translate(170.70179748535156,-0.1202545166015625)"/>
<path d="M0 0 C3.95099928 -0.0246985 7.90196874 -0.04285923 11.85302734 -0.05493164 C13.85906551 -0.06244036 15.86508202 -0.0751447 17.87109375 -0.08789062 C19.75634766 -0.09272461 19.75634766 -0.09272461 21.6796875 -0.09765625 C22.84226074 -0.10289307 24.00483398 -0.10812988 25.20263672 -0.11352539 C28 0 28 0 30 1 C30 9.25 30 17.5 30 26 C-29.73 26 -89.46 26 -151 26 C-151 17.75 -151 9.5 -151 1 C-118.33 1 -85.66 1 -52 1 C-51.505 2.485 -51.505 2.485 -51 4 C-51.33 4.33 -51.66 4.66 -52 5 C-50.68 5.99 -49.36 6.98 -48 8 C-49.98 7.67 -51.96 7.34 -54 7 C-54 7.66 -54 8.32 -54 9 C-53.01 9 -52.02 9 -51 9 C-50.505 9.99 -50.505 9.99 -50 11 C-47.69 11 -45.38 11 -43 11 C-42.505 13.475 -42.505 13.475 -42 16 C-43.485 16.495 -43.485 16.495 -45 17 C-44.01 17 -43.02 17 -42 17 C-41.67 15.02 -41.34 13.04 -41 11 C-39.35 11 -37.7 11 -36 11 C-35.67 10.34 -35.34 9.68 -35 9 C-31 10 -31 10 -29.25 10.5625 C-25.82037236 11.22937204 -22.49233698 11.05632802 -19 11 C-16.84365964 11 -15.07553648 11.4465236 -13 12 C-13 12.99 -13 13.98 -13 15 C-12.67 13.68 -12.34 12.36 -12 11 C-10.35 11.33 -8.7 11.66 -7 12 C-7 13.98 -7 15.96 -7 18 C-6.01 17.505 -6.01 17.505 -5 17 C-5.33 16.67 -5.66 16.34 -6 16 C-6.04080783 14.00041636 -6.04254356 11.99954746 -6 10 C-3.03 10.33 -0.06 10.66 3 11 C2.67 9.68 2.34 8.36 2 7 C3.9375 4.25 3.9375 4.25 6 2 C4.02 1.67 2.04 1.34 0 1 C0 0.67 0 0.34 0 0 Z " fill="#056E90" transform="translate(151,118)"/>
<path d="M0 0 C2.76702964 1.30665288 3.01519992 2.34593983 4.25 5.0625 C6.16666667 6.22916667 6.16666667 6.22916667 8.25 7.0625 C11.25 9.0625 11.25 9.0625 11.953125 11.9609375 C12.13359375 13.10820312 12.3140625 14.25546875 12.5 15.4375 C13.34337462 20.08996711 13.34337462 20.08996711 15.99609375 23.80859375 C18.10402894 25.03278095 18.10402894 25.03278095 21.25 26.0625 C20.9715625 27.2690625 20.9715625 27.2690625 20.6875 28.5 C20.543125 29.345625 20.39875 30.19125 20.25 31.0625 C20.58 31.3925 20.91 31.7225 21.25 32.0625 C21.33726223 33.84321246 21.35699041 35.6273314 21.34765625 37.41015625 C21.34282227 39.02954102 21.34282227 39.02954102 21.33789062 40.68164062 C21.32532227 42.38610352 21.32532227 42.38610352 21.3125 44.125 C21.30798828 45.26517578 21.30347656 46.40535156 21.29882812 47.58007812 C21.28699747 50.40760351 21.2705141 53.2350264 21.25 56.0625 C22.735 56.5575 22.735 56.5575 24.25 57.0625 C-6.11 56.7325 -36.47 56.4025 -67.75 56.0625 C-67.75 47.4825 -67.75 38.9025 -67.75 30.0625 C-42.34 30.0625 -16.93 30.0625 9.25 30.0625 C9.25 29.4025 9.25 28.7425 9.25 28.0625 C7.765 27.5675 7.765 27.5675 6.25 27.0625 C3.25 22.72916667 3.25 22.72916667 3.25 20.0625 C2.26 20.0625 1.27 20.0625 0.25 20.0625 C0.023125 19.464375 -0.20375 18.86625 -0.4375 18.25 C-2.10517441 15.47054264 -3.95687116 14.65857362 -6.75 13.0625 C-8.11984198 11.76670353 -9.4651049 10.44257251 -10.75 9.0625 C-8.9836541 4.29336608 -5.26395592 0.11963536 0 0 Z " fill="#052E3E" transform="translate(67.75,11.9375)"/>
<path d="M0 0 C0.9653064 0.00565979 1.93061279 0.01131958 2.9251709 0.01715088 C5.98188717 0.03938537 9.03739328 0.08955725 12.09375 0.140625 C14.1770663 0.16070672 16.26040113 0.17895455 18.34375 0.1953125 C23.4275434 0.23920775 28.51044215 0.30814497 33.59375 0.390625 C33.59375 1.380625 33.59375 2.370625 33.59375 3.390625 C31.9704813 4.0614962 30.34507422 4.72719529 28.71875 5.390625 C27.81382813 5.761875 26.90890625 6.133125 25.9765625 6.515625 C23.59375 7.390625 23.59375 7.390625 21.59375 7.390625 C21.84125 8.875625 21.84125 8.875625 22.09375 10.390625 C23.43587199 18.44335693 22.12852594 25.46345349 20.15625 33.265625 C19.92615234 34.214375 19.69605469 35.163125 19.45898438 36.140625 C17.75837054 43.06138393 17.75837054 43.06138393 16.59375 45.390625 C16.1196193 48.55149632 15.8481825 50.37472037 16.59375 53.390625 C20.32471979 58.2868547 25.21474852 59.76257261 31.09375 60.765625 C32.92435394 60.99671609 34.75717843 61.21308975 36.59375 61.390625 C36.59375 62.710625 36.59375 64.030625 36.59375 65.390625 C32.23792794 66.46466332 27.99009885 66.54014663 23.53125 66.515625 C22.82419922 66.51949219 22.11714844 66.52335937 21.38867188 66.52734375 C17.94224817 66.52087159 14.90833144 66.2866399 11.59375 65.390625 C8.19562453 65.12923073 4.79797778 64.94746449 1.39453125 64.76953125 C0.47027344 64.64449219 -0.45398438 64.51945312 -1.40625 64.390625 C-2.77577673 61.65157155 -2.53246361 59.41975168 -2.40625 56.390625 C-2.07625 55.730625 -1.74625 55.070625 -1.40625 54.390625 C-1.27357644 52.3297624 -1.17535797 50.26664071 -1.09375 48.203125 C-0.66531459 41.3832761 0.73819493 35.3095776 2.65625 28.765625 C3.53286377 25.60981544 4.29711411 22.65361979 4.59375 19.390625 C3.93375 18.400625 3.27375 17.410625 2.59375 16.390625 C-1.43706341 17.03883344 -4.85749932 18.32402688 -8.59375 19.953125 C-14.19378541 22.390625 -14.19378541 22.390625 -16.40625 22.390625 C-16.73625 23.050625 -17.06625 23.710625 -17.40625 24.390625 C-17.40625 23.400625 -17.40625 22.410625 -17.40625 21.390625 C-17.963125 21.16375 -18.52 20.936875 -19.09375 20.703125 C-22.0532009 19.02343665 -24.06751784 16.84929215 -26.40625 14.390625 C-27.40388873 13.3882693 -28.40334726 12.38771381 -29.40625 11.390625 C-27.74294441 10.30213825 -26.07539935 9.2201292 -24.40625 8.140625 C-23.478125 7.53734375 -22.55 6.9340625 -21.59375 6.3125 C-20.541875 5.67828125 -19.49 5.0440625 -18.40625 4.390625 C-17.84675659 4.04447144 -17.28726318 3.69831787 -16.71081543 3.3416748 C-11.08797414 0.16602678 -6.37117378 -0.14279208 0 0 Z " fill="#D3A977" transform="translate(96.40625,-0.390625)"/>
<path d="M0 0 C0.9653064 0.00565979 1.93061279 0.01131958 2.9251709 0.01715088 C5.98188717 0.03938537 9.03739328 0.08955725 12.09375 0.140625 C14.1770663 0.16070672 16.26040113 0.17895455 18.34375 0.1953125 C23.4275434 0.23920775 28.51044215 0.30814497 33.59375 0.390625 C33.59375 1.380625 33.59375 2.370625 33.59375 3.390625 C31.9704813 4.0614962 30.34507422 4.72719529 28.71875 5.390625 C27.81382813 5.761875 26.90890625 6.133125 25.9765625 6.515625 C23.59375 7.390625 23.59375 7.390625 21.59375 7.390625 C21.84125 8.875625 21.84125 8.875625 22.09375 10.390625 C23.34360724 17.88976846 22.35095914 24.60058169 20.59375 31.890625 C20.40296875 32.71304688 20.2121875 33.53546875 20.015625 34.3828125 C19.54947696 36.38724907 19.07272024 38.38921363 18.59375 40.390625 C18.26375 40.390625 17.93375 40.390625 17.59375 40.390625 C17.53990479 38.09921214 17.50102913 35.80744312 17.46875 33.515625 C17.44554687 32.23945312 17.42234375 30.96328125 17.3984375 29.6484375 C17.59375 26.390625 17.59375 26.390625 19.59375 24.390625 C19.83752883 21.03318388 19.83752883 21.03318388 19.71875 17.265625 C19.70070312 15.98429688 19.68265625 14.70296875 19.6640625 13.3828125 C19.64085937 12.39539062 19.61765625 11.40796875 19.59375 10.390625 C10.72869268 10.390625 4.38288366 13.60222016 -3.37890625 17.453125 C-6.49543896 18.99072084 -9.57736689 20.24299211 -12.90625 21.265625 C-14.63875 21.8225 -14.63875 21.8225 -16.40625 22.390625 C-16.73625 23.050625 -17.06625 23.710625 -17.40625 24.390625 C-17.40625 23.400625 -17.40625 22.410625 -17.40625 21.390625 C-17.963125 21.16375 -18.52 20.936875 -19.09375 20.703125 C-22.0532009 19.02343665 -24.06751784 16.84929215 -26.40625 14.390625 C-27.40388873 13.3882693 -28.40334726 12.38771381 -29.40625 11.390625 C-27.74294441 10.30213825 -26.07539935 9.2201292 -24.40625 8.140625 C-23.478125 7.53734375 -22.55 6.9340625 -21.59375 6.3125 C-20.541875 5.67828125 -19.49 5.0440625 -18.40625 4.390625 C-17.84675659 4.04447144 -17.28726318 3.69831787 -16.71081543 3.3416748 C-11.08797414 0.16602678 -6.37117378 -0.14279208 0 0 Z " fill="#D5AA78" transform="translate(96.40625,-0.390625)"/>
<path d="M0 0 C19.22771811 -0.02334974 38.45543335 -0.0409894 57.68316269 -0.05181217 C66.61072005 -0.05697071 75.5382686 -0.06400501 84.46582031 -0.07543945 C92.24613649 -0.08539977 100.02644628 -0.09185665 107.80676866 -0.09408849 C111.92721486 -0.0953933 116.04764283 -0.0984647 120.16808319 -0.10573006 C124.04544748 -0.1125115 127.92278599 -0.11461261 131.80015564 -0.11310768 C133.22397756 -0.11338305 134.64780033 -0.11537559 136.07161713 -0.11920547 C138.01451495 -0.12417578 139.95742658 -0.12238983 141.90032959 -0.12025452 C142.98804531 -0.12117631 144.07576103 -0.1220981 145.19643784 -0.12304783 C147.66195298 -0.01483682 149.63623583 0.36703282 152 1 C154.75970408 1.06926968 157.49196042 1.0941736 160.25 1.0625 C161.36761719 1.05573242 161.36761719 1.05573242 162.5078125 1.04882812 C164.3385764 1.03709246 166.16929873 1.0191585 168 1 C168 1.33 168 1.66 168 2 C166.7625 2.12375 165.525 2.2475 164.25 2.375 C161.13041454 2.77183773 158.63493952 3.1758111 156 5 C155.34 5.99 154.68 6.98 154 8 C154.33 8.99 154.66 9.98 155 11 C151.63689492 12.68155254 148.52732421 10.96716954 145 10 C145.99 13.96 145.99 13.96 147 18 C146.01 18 145.02 18 144 18 C143.67 16.02 143.34 14.04 143 12 C141.02 11.505 141.02 11.505 139 11 C139 12.65 139 14.3 139 16 C137.02 15.01 137.02 15.01 135 14 C135.99 14 136.98 14 138 14 C137.67 13.34 137.34 12.68 137 12 C136.01 12 135.02 12 134 12 C133.34 12.99 132.68 13.98 132 15 C132 13.68 132 12.36 132 11 C131.14728516 11.16048828 131.14728516 11.16048828 130.27734375 11.32421875 C124.46429737 12.22674515 121.19547125 11.76354854 116 9 C116 11.31 116 13.62 116 16 C115.67 16 115.34 16 115 16 C115 14.35 115 12.7 115 11 C113.35 11 111.7 11 110 11 C110 13.31 110 15.62 110 18 C108.02 17.67 106.04 17.34 104 17 C104.99 16.505 104.99 16.505 106 16 C106.33 15.01 106.66 14.02 107 13 C107 13.99 107 14.98 107 16 C107.66 16 108.32 16 109 16 C108.505 14.02 108.505 14.02 108 12 C105.69 11.67 103.38 11.34 101 11 C100.67 12.32 100.34 13.64 100 15 C100 13.02 100 11.04 100 9 C99.01 9 98.02 9 97 9 C97 8.34 97 7.68 97 7 C98.32 7 99.64 7 101 7 C100.01 6.34 99.02 5.68 98 5 C98.33 3.68 98.66 2.36 99 1 C66.33 1 33.66 1 0 1 C0 0.67 0 0.34 0 0 Z " fill="#02698B" transform="translate(0,118)"/>
<path d="M0 0 C2 3 2 3 1.3125 6.9375 C0.66097767 9.56051198 -0.04552284 12.16277865 -0.7734375 14.765625 C-2.61936775 21.60104988 -3.46103852 28.08811656 -3.7890625 35.1640625 C-4 38 -4 38 -5 40 C-5.0689472 41.37342831 -5.08467708 42.75002102 -5.0625 44.125 C-5.041875 45.40375 -5.02125 46.6825 -5 48 C-4.10796875 47.98839844 -3.2159375 47.97679687 -2.296875 47.96484375 C-1.12640625 47.95582031 0.0440625 47.94679687 1.25 47.9375 C2.41015625 47.92589844 3.5703125 47.91429687 4.765625 47.90234375 C8 48 8 48 9.9296875 48.49609375 C13.20929775 49.29433851 16.51993163 49.14346827 19.875 49.125 C20.56980469 49.12886719 21.26460937 49.13273437 21.98046875 49.13671875 C26.09187906 49.12897598 29.9674223 48.79640249 34 48 C34 48.66 34 49.32 34 50 C24.42587688 52.32377814 15.0866795 52.23349964 5.3125 52.125 C3.72461505 52.11494496 2.1367239 52.1058236 0.54882812 52.09765625 C-3.30093725 52.07585443 -7.15039827 52.04146559 -11 52 C-11.02505615 51.28344238 -11.0501123 50.56688477 -11.07592773 49.82861328 C-11.19169751 46.59388486 -11.31450969 43.35946159 -11.4375 40.125 C-11.47681641 38.99707031 -11.51613281 37.86914062 -11.55664062 36.70703125 C-11.61948242 35.09248047 -11.61948242 35.09248047 -11.68359375 33.4453125 C-11.72025146 32.45031738 -11.75690918 31.45532227 -11.79467773 30.43017578 C-11.84959532 27.99220499 -11.84959532 27.99220499 -13 26 C-12.34 26 -11.68 26 -11 26 C-11.03955898 24.07690578 -11.03955898 24.07690578 -12 22 C-13.99145391 20.98308736 -15.99187074 19.98357352 -18 19 C-20.73253111 14.85160293 -20.14012499 10.76424958 -20 6 C-17.42249905 4.79816525 -14.83928838 3.61343114 -12.25 2.4375 C-11.52039063 2.09525391 -10.79078125 1.75300781 -10.0390625 1.40039062 C-9.33007812 1.08134766 -8.62109375 0.76230469 -7.890625 0.43359375 C-7.24125977 0.13509521 -6.59189453 -0.16340332 -5.92285156 -0.47094727 C-3.52724053 -1.13007488 -2.28861219 -0.94507688 0 0 Z " fill="#B1D9EF" transform="translate(100,16)"/>
<path d="M0 0 C13.86 0 27.72 0 42 0 C38.91775493 2.3116838 36.24748661 3.9998466 32.875 5.75 C26.12092 9.38054434 19.29876172 13.37855728 14 19 C16.07059961 23.6190299 18.3809701 25.92940039 23 28 C22.67 28.66 22.34 29.32 22 30 C10.94517823 24.63116238 4.88307265 16.48264118 0.59375 5.09375 C0 3 0 3 0 0 Z " fill="#FBFBFA" transform="translate(44,0)"/>
<path d="M0 0 C2.76702964 1.30665288 3.01519992 2.34593983 4.25 5.0625 C6.16666667 6.22916667 6.16666667 6.22916667 8.25 7.0625 C11.25 9.0625 11.25 9.0625 11.953125 11.9609375 C12.22382812 13.68183594 12.22382812 13.68183594 12.5 15.4375 C13.34337462 20.08996711 13.34337462 20.08996711 15.99609375 23.80859375 C18.10402894 25.03278095 18.10402894 25.03278095 21.25 26.0625 C20.92 27.0525 20.59 28.0425 20.25 29.0625 C13.81600627 29.75185647 10.86937798 28.67277022 5.81640625 24.66796875 C4.25 23.0625 4.25 23.0625 3.25 20.0625 C2.26 20.0625 1.27 20.0625 0.25 20.0625 C0.023125 19.464375 -0.20375 18.86625 -0.4375 18.25 C-2.10517441 15.47054264 -3.95687116 14.65857362 -6.75 13.0625 C-8.11984198 11.76670353 -9.4651049 10.44257251 -10.75 9.0625 C-8.9836541 4.29336608 -5.26395592 0.11963536 0 0 Z " fill="#8D430F" transform="translate(67.75,11.9375)"/>
<path d="M0 0 C2.81403654 -0.3903341 5.30674688 -0.57024 8.125 -0.5625 C8.90254639 -0.5629834 9.68009277 -0.5634668 10.48120117 -0.56396484 C16.04589564 -0.40114145 18.96814125 0.6003819 23.01953125 4.53125 C26.98697193 7.47357287 32.20037848 7.53603659 37 8 C37 9.32 37 10.64 37 12 C32.64417794 13.07403832 28.39634885 13.14952163 23.9375 13.125 C23.23044922 13.12886719 22.52339844 13.13273437 21.79492188 13.13671875 C18.34849817 13.13024659 15.31458144 12.8960149 12 12 C8.60187453 11.73860573 5.20422778 11.55683949 1.80078125 11.37890625 C0.87652344 11.25386719 -0.04773438 11.12882812 -1 11 C-2.38550197 8.22899606 -2.1877467 6.0665294 -2 3 C-1.34 2.01 -0.68 1.02 0 0 Z " fill="#8E4410" transform="translate(96,53)"/>
<path d="M0 0 C2 3 2 3 1.79296875 5.15625 C1.59316406 5.9296875 1.39335938 6.703125 1.1875 7.5 C0.89939453 8.66015625 0.89939453 8.66015625 0.60546875 9.84375 C0.11881701 11.57685815 -0.43074665 13.29223995 -1 15 C-7.27 15 -13.54 15 -20 15 C-20 12.03 -20 9.06 -20 6 C-17.42249905 4.79816525 -14.83928838 3.61343114 -12.25 2.4375 C-11.52039063 2.09525391 -10.79078125 1.75300781 -10.0390625 1.40039062 C-9.33007812 1.08134766 -8.62109375 0.76230469 -7.890625 0.43359375 C-7.24125977 0.13509521 -6.59189453 -0.16340332 -5.92285156 -0.47094727 C-3.52724053 -1.13007488 -2.28861219 -0.94507688 0 0 Z " fill="#F8F9F6" transform="translate(100,16)"/>
<path d="M0 0 C2.76702964 1.30665288 3.01519992 2.34593983 4.25 5.0625 C6.26669827 6.19600534 6.26669827 6.19600534 8.25 7.0625 C8.58 7.7225 8.91 8.3825 9.25 9.0625 C7.27 9.0625 5.29 9.0625 3.25 9.0625 C3.58 10.3825 3.91 11.7025 4.25 13.0625 C3.26 13.5575 3.26 13.5575 2.25 14.0625 C1.26 13.7325 0.27 13.4025 -0.75 13.0625 C-0.0075 14.238125 -0.0075 14.238125 0.75 15.4375 C2.25 18.0625 2.25 18.0625 2.25 20.0625 C1.59 20.0625 0.93 20.0625 0.25 20.0625 C0.023125 19.464375 -0.20375 18.86625 -0.4375 18.25 C-2.10517441 15.47054264 -3.95687116 14.65857362 -6.75 13.0625 C-8.11984198 11.76670353 -9.4651049 10.44257251 -10.75 9.0625 C-8.9836541 4.29336608 -5.26395592 0.11963536 0 0 Z " fill="#87461D" transform="translate(67.75,11.9375)"/>
<path d="M0 0 C4.455 1.98 4.455 1.98 9 4 C9 5.65 9 7.3 9 9 C8.67 7.68 8.34 6.36 8 5 C7.34 5 6.68 5 6 5 C6 6.32 6 7.64 6 9 C1.38 9.33 -3.24 9.66 -8 10 C-8.66 9.01 -9.32 8.02 -10 7 C-10.33 7.66 -10.66 8.32 -11 9 C-11.33 9.33 -11.66 9.66 -12 10 C-11.67 10.66 -11.34 11.32 -11 12 C-13.475 11.01 -13.475 11.01 -16 10 C-15.25 4.25 -15.25 4.25 -13 2 C-12.01 2 -11.02 2 -10 2 C-9.67 2.66 -9.34 3.32 -9 4 C-7.824375 3.2265625 -7.824375 3.2265625 -6.625 2.4375 C-5.75875 1.963125 -4.8925 1.48875 -4 1 C-3.34 1.33 -2.68 1.66 -2 2 C-1.67 1.67 -1.34 1.34 -1 1 C-0.67 0.67 -0.34 0.34 0 0 Z " fill="#1B9CCA" transform="translate(163,176)"/>
<path d="M0 0 C5.61 0 11.22 0 17 0 C17.99 2.64 18.98 5.28 20 8 C19.01 8.99 18.02 9.98 17 11 C16.67 10.34 16.34 9.68 16 9 C14.68 9 13.36 9 12 9 C12 8.34 12 7.68 12 7 C11.09507813 7.03480469 11.09507813 7.03480469 10.171875 7.0703125 C8.97304688 7.09738281 8.97304688 7.09738281 7.75 7.125 C6.96109375 7.14820313 6.1721875 7.17140625 5.359375 7.1953125 C2.79268059 6.9828378 1.2083933 6.28654105 -1 5 C-0.67 3.35 -0.34 1.7 0 0 Z " fill="#697C85" transform="translate(43,53)"/>
<path d="M0 0 C0.33 0 0.66 0 1 0 C1 7.59 1 15.18 1 23 C2.32 23 3.64 23 5 23 C5 21.35 5 19.7 5 18 C5.33 18.66 5.66 19.32 6 20 C6.89203125 19.98839844 7.7840625 19.97679688 8.703125 19.96484375 C9.87359375 19.95582031 11.0440625 19.94679688 12.25 19.9375 C13.41015625 19.92589844 14.5703125 19.91429688 15.765625 19.90234375 C19 20 19 20 20.9296875 20.49609375 C24.20929775 21.29433851 27.51993163 21.14346827 30.875 21.125 C31.56980469 21.12886719 32.26460937 21.13273437 32.98046875 21.13671875 C37.09187906 21.12897598 40.9674223 20.79640249 45 20 C45 20.66 45 21.32 45 22 C35.42587688 24.32377814 26.0866795 24.23349964 16.3125 24.125 C14.72461505 24.11494496 13.1367239 24.1058236 11.54882812 24.09765625 C7.69893623 24.07757335 3.8499245 24.0383926 0 24 C0 16.08 0 8.16 0 0 Z " fill="#A6927E" transform="translate(89,44)"/>
<path d="M0 0 C0.804375 0.495 1.60875 0.99 2.4375 1.5 C6.82002454 3.34527349 10.32315231 3.28061086 15 3 C15 3.66 15 4.32 15 5 C11.79311929 6.60344035 8.30817153 6.12922745 4.78662109 6.11352539 C3.51334206 6.11374443 3.51334206 6.11374443 2.21434021 6.1139679 C-0.59931977 6.11326966 -3.41291404 6.1054814 -6.2265625 6.09765625 C-8.17426518 6.09579175 -10.12196832 6.094368 -12.06967163 6.09336853 C-17.20220224 6.08954583 -22.33470467 6.07971765 -27.46722412 6.06866455 C-32.70210387 6.05844512 -37.93698816 6.05386977 -43.171875 6.04882812 C-53.44792907 6.03809517 -63.72396219 6.0210217 -74 6 C-74 5.67 -74 5.34 -74 5 C-48.59 5 -23.18 5 3 5 C3 4.34 3 3.68 3 3 C2.01 2.67 1.02 2.34 0 2 C0 1.34 0 0.68 0 0 Z " fill="#52696F" transform="translate(74,37)"/>
<path d="M0 0 C1.32 0 2.64 0 4 0 C4 2.64 4 5.28 4 8 C4.66 7.34 5.32 6.68 6 6 C5.67 5.67 5.34 5.34 5 5 C4.95936168 3.33382885 4.957279 1.66611905 5 0 C6.65 0 8.3 0 10 0 C10.125 6.75 10.125 6.75 9 9 C3.42806631 11.22877348 0.42157354 10.99159844 -5 9 C-4.67 8.34 -4.34 7.68 -4 7 C-1.9375 6.375 -1.9375 6.375 0 6 C-0.2784375 4.7934375 -0.2784375 4.7934375 -0.5625 3.5625 C-0.706875 2.716875 -0.85125 1.87125 -1 1 C-0.67 0.67 -0.34 0.34 0 0 Z " fill="#4E6876" transform="translate(24,53)"/>
<path d="M0 0 C14.52 0 29.04 0 44 0 C44.66 2.31 45.32 4.62 46 7 C45.34 7 44.68 7 44 7 C44 6.01 44 5.02 44 4 C43.34 4 42.68 4 42 4 C42 3.34 42 2.68 42 2 C28.14 2 14.28 2 0 2 C0 1.34 0 0.68 0 0 Z " fill="#BBE0F6" transform="translate(0,0)"/>
<path d="M0 0 C1.125 4.75 1.125 4.75 0 7 C-4.33333333 7 -8.66666667 7 -13 7 C-13 5.68 -13 4.36 -13 3 C-13.66 3 -14.32 3 -15 3 C-15.33 4.32 -15.66 5.64 -16 7 C-16 5.35 -16 3.7 -16 2 C-13.03 2.495 -13.03 2.495 -10 3 C-9.67 2.01 -9.34 1.02 -9 0 C-3.375 -1.125 -3.375 -1.125 0 0 Z " fill="#26A1CC" transform="translate(211,178)"/>
<path d="M0 0 C4.21878192 -0.19622241 7.17010894 0.19769832 11 2 C11.33 1.34 11.66 0.68 12 0 C12.99 0.33 13.98 0.66 15 1 C14.34 1 13.68 1 13 1 C13 1.99 13 2.98 13 4 C13.99 4.66 14.98 5.32 16 6 C14.35 6 12.7 6 11 6 C11 5.34 11 4.68 11 4 C10.34 4 9.68 4 9 4 C9 6.64 9 9.28 9 12 C9.66 12 10.32 12 11 12 C11 10.35 11 8.7 11 7 C11.99 8.485 11.99 8.485 13 10 C12.67 10.66 12.34 11.32 12 12 C12.99 12.33 13.98 12.66 15 13 C12.25 14.1875 12.25 14.1875 9 15 C6.625 13.625 6.625 13.625 5 12 C5.99 12 6.98 12 8 12 C7.814375 11.38125 7.62875 10.7625 7.4375 10.125 C7 8 7 8 8 6 C7.071875 6.309375 7.071875 6.309375 6.125 6.625 C5.42375 6.74875 4.7225 6.8725 4 7 C1.77810176 4.77810176 1.07401108 2.91517292 0 0 Z " fill="#083F52" transform="translate(64,72)"/>
<path d="M0 0 C0.556875 0.8971875 0.556875 0.8971875 1.125 1.8125 C3.42561008 4.49654509 5.79751065 5.5766714 9 7 C8.67 7.99 8.34 8.98 8 10 C2.59281183 10.57934159 -0.10649656 10.34220083 -4.5 7 C-5.68193081 6.01808825 -6.85423174 5.02387802 -8 4 C-7.67 3.34 -7.34 2.68 -7 2 C-4.69 2 -2.38 2 0 2 C0 1.34 0 0.68 0 0 Z " fill="#8F4716" transform="translate(80,31)"/>
<path d="M0 0 C0.99 0 1.98 0 3 0 C3 0.66 3 1.32 3 2 C4.299375 1.979375 5.59875 1.95875 6.9375 1.9375 C8.29165633 1.91600546 9.64756083 1.92851801 11 2 C11.33 2.33 11.66 2.66 12 3 C14.05396726 2.59070014 14.05396726 2.59070014 16 2 C16 3.65 16 5.3 16 7 C14.20909747 7.19466332 12.41723495 7.38051213 10.625 7.5625 C9.12839844 7.71912109 9.12839844 7.71912109 7.6015625 7.87890625 C5 8 5 8 3 7 C3 6.34 3 5.68 3 5 C2.01 5 1.02 5 0 5 C-0.33 5.66 -0.66 6.32 -1 7 C-0.67 4.69 -0.34 2.38 0 0 Z " fill="#2F566A" transform="translate(43,77)"/>
<path d="M0 0 C1.31571603 0.2547514 2.62760376 0.52934141 3.9375 0.8125 C4.66839844 0.96332031 5.39929688 1.11414062 6.15234375 1.26953125 C6.76207031 1.51058594 7.37179688 1.75164063 8 2 C8.33 2.99 8.66 3.98 9 5 C8.01 5.33 7.02 5.66 6 6 C5.67 7.65 5.34 9.3 5 11 C5.66 11.33 6.32 11.66 7 12 C6.01 13.32 5.02 14.64 4 16 C3.05125 15.814375 2.1025 15.62875 1.125 15.4375 C-1.89868793 14.71313368 -1.89868793 14.71313368 -4 16 C-4.33 14.35 -4.66 12.7 -5 11 C-4.34 11 -3.68 11 -3 11 C-2.67 9.68 -2.34 8.36 -2 7 C-2 8.32 -2 9.64 -2 11 C-1.34 11 -0.68 11 0 11 C0.33 9.68 0.66 8.36 1 7 C1.33 7.99 1.66 8.98 2 10 C2.66 10.33 3.32 10.66 4 11 C3.54151632 6.8736469 3.15110598 4.74009215 0 2 C0 1.34 0 0.68 0 0 Z " fill="#05202C" transform="translate(67,48)"/>
<path d="M0 0 C0.66 0.66 1.32 1.32 2 2 C2.66 2.144375 3.32 2.28875 4 2.4375 C6 3 6 3 8 6 C8.125 8.6875 8.125 8.6875 8 11 C5.69 11 3.38 11 1 11 C0.67 10.34 0.34 9.68 0 9 C-0.99 9.33 -1.98 9.66 -3 10 C-3.36923077 3.47692308 -3.36923077 3.47692308 -1.5 1.0625 C-1.005 0.711875 -0.51 0.36125 0 0 Z " fill="#1F3A47" transform="translate(14,48)"/>
<path d="M0 0 C3.465 1.485 3.465 1.485 7 3 C7 4.65 7 6.3 7 8 C6.67 6.68 6.34 5.36 6 4 C5.34 4 4.68 4 4 4 C4 5.32 4 6.64 4 8 C0.7 8 -2.6 8 -6 8 C-6 6.35 -6 4.7 -6 3 C-5.195625 2.690625 -4.39125 2.38125 -3.5625 2.0625 C-1.10919595 1.23664655 -1.10919595 1.23664655 0 0 Z " fill="#7BC8E1" transform="translate(165,177)"/>
<path d="M0 0 C1.00289062 0.10183594 2.00578125 0.20367187 3.0390625 0.30859375 C3.80992187 0.39238281 4.58078125 0.47617187 5.375 0.5625 C5.375 1.8825 5.375 3.2025 5.375 4.5625 C-0.23063042 5.38872671 -5.04789352 5.63045656 -10.625 4.5625 C-10.625 3.5725 -10.625 2.5825 -10.625 1.5625 C-9.635 1.2325 -8.645 0.9025 -7.625 0.5625 C-4.89657939 -0.80171031 -3.01546682 -0.31557211 0 0 Z " fill="#914415" transform="translate(127.625,60.4375)"/>
<path d="M0 0 C1.98 0 3.96 0 6 0 C6.99 2.64 7.98 5.28 9 8 C8.01 8.99 7.02 9.98 6 11 C5.67 10.34 5.34 9.68 5 9 C3.68 9 2.36 9 1 9 C1 8.34 1 7.68 1 7 C0.34 7 -0.32 7 -1 7 C-1 6.34 -1 5.68 -1 5 C-0.34 5 0.32 5 1 5 C0.67 3.35 0.34 1.7 0 0 Z " fill="#163846" transform="translate(54,53)"/>
<path d="M0 0 C4.29 0 8.58 0 13 0 C13 1.65 13 3.3 13 5 C12.67 4.01 12.34 3.02 12 2 C11.34 2 10.68 2 10 2 C9.67 2.99 9.34 3.98 9 5 C9 4.01 9 3.02 9 2 C8.34 2 7.68 2 7 2 C7 3.65 7 5.3 7 7 C5.02 7 3.04 7 1 7 C0.67 4.69 0.34 2.38 0 0 Z " fill="#3C86A6" transform="translate(119,129)"/>
<path d="M0 0 C6.875 0.875 6.875 0.875 8 2 C8 3.65 8 5.3 8 7 C4.7 7 1.4 7 -2 7 C-2 5.35 -2 3.7 -2 2 C-1.34 2 -0.68 2 0 2 C0 1.34 0 0.68 0 0 Z " fill="#90D0E6" transform="translate(185,178)"/>
<path d="M0 0 C0.33 0 0.66 0 1 0 C2.44114594 8.64687566 2.04665715 16.00913859 0 24.5 C-0.19078125 25.32242188 -0.3815625 26.14484375 -0.578125 26.9921875 C-1.04427304 28.99662407 -1.52102976 30.99858863 -2 33 C-2.33 33 -2.66 33 -3 33 C-3.05384521 30.70858714 -3.09272087 28.41681812 -3.125 26.125 C-3.14820312 24.84882813 -3.17140625 23.57265625 -3.1953125 22.2578125 C-3 19 -3 19 -1 17 C-0.69324768 14.10032243 -0.48826629 11.28216822 -0.375 8.375 C-0.33632812 7.57320312 -0.29765625 6.77140625 -0.2578125 5.9453125 C-0.16346069 3.96392444 -0.08063785 1.98199355 0 0 Z " fill="#D1BD9E" transform="translate(117,7)"/>
<path d="M0 0 C0.99 0.33 1.98 0.66 3 1 C3.6953125 2.99609375 3.6953125 2.99609375 4.125 5.4375 C4.73123617 8.8273078 4.73123617 8.8273078 6 12 C4.68 11.34 3.36 10.68 2 10 C2 9.34 2 8.68 2 8 C1.01 8 0.02 8 -1 8 C-1 7.34 -1 6.68 -1 6 C-1.99 6.33 -2.98 6.66 -4 7 C-4 5.68 -4 4.36 -4 3 C-2.1875 1.1875 -2.1875 1.1875 0 0 Z " fill="#893F0A" transform="translate(65,12)"/>
<path d="M0 0 C0.33 0.66 0.66 1.32 1 2 C4.465 1.505 4.465 1.505 8 1 C8 2.65 8 4.3 8 6 C6.02 6.33 4.04 6.66 2 7 C2 6.34 2 5.68 2 5 C1.01 5 0.02 5 -1 5 C-1.33 6.65 -1.66 8.3 -2 10 C-3.125 8.25 -3.125 8.25 -4 6 C-3.125 3.75 -3.125 3.75 -2 2 C-1.34 2 -0.68 2 0 2 C0 1.34 0 0.68 0 0 Z " fill="#094056" transform="translate(44,72)"/>
<path d="M0 0 C4.17383395 3.92831431 7.89394426 8.16479983 11 13 C11 13.66 11 14.32 11 15 C10.34 15 9.68 15 9 15 C8.773125 14.401875 8.54625 13.80375 8.3125 13.1875 C6.64482559 10.40804264 4.79312884 9.59607362 2 8 C0.63015802 6.70420353 -0.7151049 5.38007251 -2 4 C-1.34 2.68 -0.68 1.36 0 0 Z " fill="#C68A59" transform="translate(59,17)"/>
<path d="M0 0 C3.34373475 0.55728913 6.03312999 1.35173889 9 3 C9 3.66 9 4.32 9 5 C9.99 5 10.98 5 12 5 C13.6875 7.5 13.6875 7.5 15 10 C12.64828869 9.40138258 10.3140622 8.73075648 8 8 C7.67 7.34 7.34 6.68 7 6 C6.34 6.66 5.68 7.32 5 8 C4.67 7.01 4.34 6.02 4 5 C2.68 5 1.36 5 0 5 C0 3.35 0 1.7 0 0 Z " fill="#B0D9ED" transform="translate(59,27)"/>
<path d="M0 0 C3 0 3 0 5 1 C5 1.66 5 2.32 5 3 C5.66 3 6.32 3 7 3 C7.33 2.01 7.66 1.02 8 0 C9.65 0 11.3 0 13 0 C13 0.99 13 1.98 13 3 C13.66 3.33 14.32 3.66 15 4 C13.68 4 12.36 4 11 4 C11 5.98 11 7.96 11 10 C10.67 10 10.34 10 10 10 C9.67 8.35 9.34 6.7 9 5 C5.7 4.67 2.4 4.34 -1 4 C-0.67 2.68 -0.34 1.36 0 0 Z " fill="#052433" transform="translate(51,49)"/>
<path d="M0 0 C2.64 0.33 5.28 0.66 8 1 C8 2.65 8 4.3 8 6 C6.02 6.66 4.04 7.32 2 8 C0 6 0 6 -0.125 2.875 C-0.08375 1.92625 -0.0425 0.9775 0 0 Z " fill="#73A8BA" transform="translate(145,128)"/>
<path d="M0 0 C2 1 2 1 3 2 C4.32 2 5.64 2 7 2 C7 3.98 7 5.96 7 8 C2.25 9.125 2.25 9.125 0 8 C0 5.36 0 2.72 0 0 Z " fill="#96B8C5" transform="translate(90,102)"/>
<path d="M0 0 C3.5 0.125 3.5 0.125 4.5 1.125 C4.54063832 2.79117115 4.542721 4.45888095 4.5 6.125 C1.86 6.125 -0.78 6.125 -3.5 6.125 C-3.88218767 4.46885343 -4.21395102 2.80042976 -4.5 1.125 C-3.5 0.125 -3.5 0.125 0 0 Z " fill="#77C7DE" transform="translate(177.5,178.875)"/>
<path d="M0 0 C4.29 0 8.58 0 13 0 C13 0.99 13 1.98 13 3 C11.3789897 3.69685498 9.75303934 4.38222861 8.125 5.0625 C7.22007813 5.44535156 6.31515625 5.82820312 5.3828125 6.22265625 C3 7 3 7 1 6 C1.66 5.34 2.32 4.68 3 4 C3.99 4 4.98 4 6 4 C6 3.34 6 2.68 6 2 C4.02 2 2.04 2 0 2 C0 1.34 0 0.68 0 0 Z " fill="#D4B590" transform="translate(117,0)"/>
<path d="M0 0 C7.92 0 15.84 0 24 0 C24 0.33 24 0.66 24 1 C16.375 3 16.375 3 13 3 C13.33 2.67 13.66 2.34 14 2 C9.05 2.33 4.1 2.66 -1 3 C-0.67 2.01 -0.34 1.02 0 0 Z " fill="#034253" transform="translate(94,68)"/>
<path d="M0 0 C0.99 0.99 1.98 1.98 3 3 C2.34 3.66 1.68 4.32 1 5 C0.83318891 8.08347826 0.83318891 8.08347826 1 11 C-0.98 11.99 -0.98 11.99 -3 13 C-3.33 12.01 -3.66 11.02 -4 10 C-3.34 10 -2.68 10 -2 10 C-1.67 8.02 -1.34 6.04 -1 4 C-1.99 4 -2.98 4 -4 4 C-4 5.65 -4 7.3 -4 9 C-4.33 9 -4.66 9 -5 9 C-5 6.69 -5 4.38 -5 2 C-3.68 2 -2.36 2 -1 2 C-0.67 1.34 -0.34 0.68 0 0 Z " fill="#082332" transform="translate(42,49)"/>
<path d="M0 0 C1.66611905 -0.042721 3.33382885 -0.04063832 5 0 C6 1 6 1 6.125 3.5 C6 6 6 6 5 7 C3.33382885 7.04063832 1.66611905 7.042721 0 7 C0 4.69 0 2.38 0 0 Z " fill="#98B8C4" transform="translate(72,102)"/>
<path d="M0 0 C0.99 0 1.98 0 3 0 C3.66 1.98 4.32 3.96 5 6 C4.34 5.67 3.68 5.34 3 5 C2.67 5.66 2.34 6.32 2 7 C1.67 7.33 1.34 7.66 1 8 C1.33 8.66 1.66 9.32 2 10 C-0.475 9.01 -0.475 9.01 -3 8 C-2.25 2.25 -2.25 2.25 0 0 Z " fill="#64C4E1" transform="translate(150,178)"/>
<path d="M0 0 C0 1.98 0 3.96 0 6 C-1.32 6 -2.64 6 -4 6 C-4 5.01 -4 4.02 -4 3 C-4.45375 3.825 -4.9075 4.65 -5.375 5.5 C-5.91125 6.325 -6.4475 7.15 -7 8 C-7.66 8 -8.32 8 -9 8 C-9 5.69 -9 3.38 -9 1 C-8.01 1 -7.02 1 -6 1 C-3 0 -3 0 0 0 Z " fill="#B0C2CD" transform="translate(72,78)"/>
<path d="M0 0 C0.33 0 0.66 0 1 0 C1.08537932 5.37889698 0.8882763 10.51332089 0.22265625 15.84765625 C-0.09469576 18.91539239 -0.0655655 21.9184213 0 25 C-3.47526621 19.31821556 -2.64225296 11.72617451 -1.546875 5.37109375 C-1.09423753 3.56377701 -0.55771117 1.77770434 0 0 Z " fill="#BFE0F2" transform="translate(162,11)"/>
<path d="M0 0 C1.66611905 -0.042721 3.33382885 -0.04063832 5 0 C5.33 0.33 5.66 0.66 6 1 C8.05396726 0.59070014 8.05396726 0.59070014 10 0 C10 1.65 10 3.3 10 5 C7.69 5 5.38 5 3 5 C3 3.68 3 2.36 3 1 C2.34 1 1.68 1 1 1 C0.67 2.32 0.34 3.64 0 5 C0 3.35 0 1.7 0 0 Z " fill="#BCCCD1" transform="translate(49,79)"/>
<path d="M0 0 C0 1.98 0 3.96 0 6 C-0.99 5.67 -1.98 5.34 -3 5 C-3 4.01 -3 3.02 -3 2 C-3.66 3.32 -4.32 4.64 -5 6 C-5.99 6 -6.98 6 -8 6 C-8 4.35 -8 2.7 -8 1 C-3.375 -1.125 -3.375 -1.125 0 0 Z " fill="#ABD1DF" transform="translate(143,154)"/>
<path d="M0 0 C2.69082872 0.17635452 5.32851446 0.61835921 8 1 C8 1.66 8 2.32 8 3 C8.99 3 9.98 3 11 3 C11 3.66 11 4.32 11 5 C9.02 5 7.04 5 5 5 C5 5.66 5 6.32 5 7 C5.99 7.33 6.98 7.66 8 8 C6.35 8 4.7 8 3 8 C3 6.33333333 3 4.66666667 3 3 C1.68 2.34 0.36 1.68 -1 1 C-0.67 0.67 -0.34 0.34 0 0 Z " fill="#0697BD" transform="translate(173,184)"/>
<path d="M0 0 C0.66 0 1.32 0 2 0 C2 0.66 2 1.32 2 2 C3.65 2.33 5.3 2.66 7 3 C6.67 4.65 6.34 6.3 6 8 C5.01 8 4.02 8 3 8 C3 7.01 3 6.02 3 5 C2.67 5.99 2.34 6.98 2 8 C1.34 8 0.68 8 0 8 C0 5.36 0 2.72 0 0 Z " fill="#A1B8C6" transform="translate(73,76)"/>
<path d="M0 0 C0.66 0 1.32 0 2 0 C2 2.64 2 5.28 2 8 C0.35 7.67 -1.3 7.34 -3 7 C-3.33 5.35 -3.66 3.7 -4 2 C-3.34 1.67 -2.68 1.34 -2 1 C-1.34 1.33 -0.68 1.66 0 2 C0 1.34 0 0.68 0 0 Z " fill="#90BBC9" transform="translate(158,127)"/>
<path d="M0 0 C3 1 3 1 4 2.875 C4.33 3.57625 4.66 4.2775 5 5 C7.05230662 7.42545327 9.1105473 8.7047281 12 10 C11.67 10.66 11.34 11.32 11 12 C1.35448578 7.06345733 1.35448578 7.06345733 -0.125 2.625 C-0.08375 1.75875 -0.0425 0.8925 0 0 Z " fill="#EEEEEA" transform="translate(55,18)"/>
<path d="M0 0 C2.31 0 4.62 0 7 0 C7.33 1.65 7.66 3.3 8 5 C5.36 5 2.72 5 0 5 C0 3.35 0 1.7 0 0 Z " fill="#BFD6E3" transform="translate(101,129)"/>
<path d="M0 0 C0.66 0 1.32 0 2 0 C2.33 0.66 2.66 1.32 3 2 C3.99 2 4.98 2 6 2 C5.67 3.98 5.34 5.96 5 8 C4.01 8.33 3.02 8.66 2 9 C1.34 8.67 0.68 8.34 0 8 C0 5.36 0 2.72 0 0 Z " fill="#9DABB5" transform="translate(35,51)"/>
<path d="M0 0 C2.31 0 4.62 0 7 0 C7 1.65 7 3.3 7 5 C4.69 5 2.38 5 0 5 C0 3.35 0 1.7 0 0 Z " fill="#ABDBEC" transform="translate(159,180)"/>
<path d="M0 0 C3.3 0 6.6 0 10 0 C9.01 0.33 8.02 0.66 7 1 C7 1.66 7 2.32 7 3 C7.99 3 8.98 3 10 3 C10 3.66 10 4.32 10 5 C9.401875 4.814375 8.80375 4.62875 8.1875 4.4375 C5.83591238 3.77906313 5.83591238 3.77906313 3 5 C3 3.68 3 2.36 3 1 C2.34 1 1.68 1 1 1 C0.67 2.32 0.34 3.64 0 5 C0 3.35 0 1.7 0 0 Z " fill="#C4E8F4" transform="translate(195,180)"/>
<path d="M0 0 C0.86963379 0.23771118 0.86963379 0.23771118 1.75683594 0.48022461 C5.21220398 1.28088618 8.71910303 1.37223082 12.25 1.5625 C12.99507812 1.60568359 13.74015625 1.64886719 14.5078125 1.69335938 C16.338349 1.79896725 18.16915176 1.89994201 20 2 C20 2.33 20 2.66 20 3 C18.77023438 3.09087891 18.77023438 3.09087891 17.515625 3.18359375 C15.89914063 3.30927734 15.89914063 3.30927734 14.25 3.4375 C12.64898437 3.55931641 12.64898437 3.55931641 11.015625 3.68359375 C8.10287232 3.89494147 8.10287232 3.89494147 5.796875 4.66015625 C4 5 4 5 1 3 C0.67 2.01 0.34 1.02 0 0 Z " fill="#EDF6FC" transform="translate(188,64)"/>
<path d="M0 0 C2.475 0.495 2.475 0.495 5 1 C5 2.98 5 4.96 5 7 C3.33333333 7 1.66666667 7 0 7 C0 4.69 0 2.38 0 0 Z " fill="#AAB5BC" transform="translate(11,51)"/>
<path d="M0 0 C2.31 0 4.62 0 7 0 C6.67 1.98 6.34 3.96 6 6 C3.5625 5.25 3.5625 5.25 1 4 C0.1875 1.875 0.1875 1.875 0 0 Z " fill="#B4D5E5" transform="translate(81,31)"/>
<path d="M0 0 C0.33 1.32 0.66 2.64 1 4 C2.32 4.33 3.64 4.66 5 5 C5 6.32 5 7.64 5 9 C4.38125 8.814375 3.7625 8.62875 3.125 8.4375 C0.95839822 7.76313824 0.95839822 7.76313824 -1 9 C-1.33 7.35 -1.66 5.7 -2 4 C-1.34 4 -0.68 4 0 4 C0 2.68 0 1.36 0 0 Z " fill="#072C3A" transform="translate(64,55)"/>
<path d="M0 0 C1.32 0 2.64 0 4 0 C4 2.31 4 4.62 4 7 C1.525 6.01 1.525 6.01 -1 5 C-0.67 3.35 -0.34 1.7 0 0 Z " fill="#B3BBC3" transform="translate(24,53)"/>
<path d="M0 0 C1.65 0 3.3 0 5 0 C5 1.65 5 3.3 5 5 C4.01 5 3.02 5 2 5 C2 5.66 2 6.32 2 7 C1.34 7 0.68 7 0 7 C0 4.69 0 2.38 0 0 Z " fill="#AFCDD9" transform="translate(110,129)"/>
<path d="M0 0 C1.00289062 0.10183594 2.00578125 0.20367187 3.0390625 0.30859375 C3.80992187 0.39238281 4.58078125 0.47617187 5.375 0.5625 C5.705 1.5525 6.035 2.5425 6.375 3.5625 C4.41598546 3.44867347 2.4577662 3.32108875 0.5 3.1875 C-0.59054688 3.11789063 -1.68109375 3.04828125 -2.8046875 2.9765625 C-5.625 2.5625 -5.625 2.5625 -7.625 0.5625 C-4.89657939 -0.80171031 -3.01546682 -0.31557211 0 0 Z " fill="#8A3F0C" transform="translate(127.625,60.4375)"/>
<path d="M0 0 C3.63 0 7.26 0 11 0 C11.33 0.66 11.66 1.32 12 2 C11.67 2.66 11.34 3.32 11 4 C8.36 4 5.72 4 3 4 C3 3.67 3 3.34 3 3 C4.65 3 6.3 3 8 3 C8 2.34 8 1.68 8 1 C5.69 1.33 3.38 1.66 1 2 C0.67 1.34 0.34 0.68 0 0 Z " fill="#022E46" transform="translate(77,43)"/>
<path d="M0 0 C2.31 0.66 4.62 1.32 7 2 C7 2.99 7 3.98 7 5 C4.6875 5.6875 4.6875 5.6875 2 6 C0.1875 4.5625 0.1875 4.5625 -1 3 C-0.67 2.01 -0.34 1.02 0 0 Z " fill="#A7D5EE" transform="translate(177,113)"/>
<path d="M0 0 C0.99 0.495 0.99 0.495 2 1 C1.67 1.66 1.34 2.32 1 3 C1.66 3 2.32 3 3 3 C3 2.01 3 1.02 3 0 C3.66 0 4.32 0 5 0 C5.125 2.375 5.125 2.375 5 5 C4.34 5.66 3.68 6.32 3 7 C2.01 7 1.02 7 0 7 C0 4.69 0 2.38 0 0 Z " fill="#C2DFEC" transform="translate(153,155)"/>
<path d="M0 0 C1.31571603 0.2547514 2.62760376 0.52934141 3.9375 0.8125 C4.66839844 0.96332031 5.39929688 1.11414062 6.15234375 1.26953125 C6.76207031 1.51058594 7.37179688 1.75164063 8 2 C8.33 2.99 8.66 3.98 9 5 C7.35 5.66 5.7 6.32 4 7 C0 2.25 0 2.25 0 0 Z " fill="#072837" transform="translate(67,48)"/>
<path d="M0 0 C1.9375 0.8125 1.9375 0.8125 4 2 C4.33 2.99 4.66 3.98 5 5 C6.31647119 5.69937532 7.65022151 6.36729133 9 7 C9.33 7.66 9.66 8.32 10 9 C5.70057465 8.52228607 3.7064865 7.38310813 1 4 C0.25 1.75 0.25 1.75 0 0 Z " fill="#294179" transform="translate(67,12)"/>
<path d="M0 0 C2.475 0.495 2.475 0.495 5 1 C5 2.65 5 4.3 5 6 C3.35 6 1.7 6 0 6 C0 4.02 0 2.04 0 0 Z " fill="#ADB9C3" transform="translate(62,53)"/>
<path d="M0 0 C2.19050021 0.09017996 4.378466 0.24666208 6.5625 0.4375 C7.76003906 0.53933594 8.95757812 0.64117187 10.19140625 0.74609375 C11.11824219 0.82988281 12.04507813 0.91367187 13 1 C10.00261059 2.99825961 9.36652492 3.27550398 6 3.25 C5.319375 3.25515625 4.63875 3.2603125 3.9375 3.265625 C2 3 2 3 -1 1 C-0.67 0.67 -0.34 0.34 0 0 Z " fill="#213E79" transform="translate(96,53)"/>
<path d="M0 0 C0.99 0 1.98 0 3 0 C3 0.66 3 1.32 3 2 C3.99 2 4.98 2 6 2 C7.6875 4.5 7.6875 4.5 9 7 C5.625 6.3125 5.625 6.3125 2 5 C0.5625 2.375 0.5625 2.375 0 0 Z " fill="#B7C6CA" transform="translate(65,30)"/>
<path d="M0 0 C2 2 2 2 2 6 C0.02 6.33 -1.96 6.66 -4 7 C-4.99 5.68 -5.98 4.36 -7 3 C-5.33388095 2.957279 -3.66617115 2.95936168 -2 3 C-1.67 3.33 -1.34 3.66 -1 4 C-0.67 2.68 -0.34 1.36 0 0 Z " fill="#0BA2D2" transform="translate(200,183)"/>
<path d="M0 0 C0.99 0.33 1.98 0.66 3 1 C3 2.65 3 4.3 3 6 C1.68 5.67 0.36 5.34 -1 5 C-1 1 -1 1 0 0 Z " fill="#B0D3E6" transform="translate(131,154)"/>
<path d="M0 0 C2.31 0 4.62 0 7 0 C7 1.65 7 3.3 7 5 C6.67 4.01 6.34 3.02 6 2 C5.34 2 4.68 2 4 2 C3.67 2.99 3.34 3.98 3 5 C3 4.01 3 3.02 3 2 C2.34 2 1.68 2 1 2 C0.67 2.99 0.34 3.98 0 5 C0 3.35 0 1.7 0 0 Z " fill="#CFE3EB" transform="translate(125,129)"/>
<path d="M0 0 C0.99 0.33 1.98 0.66 3 1 C3 2.65 3 4.3 3 6 C1.68 5.67 0.36 5.34 -1 5 C-1 1 -1 1 0 0 Z " fill="#B0BAC3" transform="translate(19,53)"/>
<path d="M0 0 C1.98 0.495 1.98 0.495 4 1 C3.67 2.65 3.34 4.3 3 6 C1.68 5.34 0.36 4.68 -1 4 C-0.67 2.68 -0.34 1.36 0 0 Z " fill="#B1BAC3" transform="translate(57,53)"/>
<path d="M0 0 C1.98 0 3.96 0 6 0 C4.63016497 3.16115776 4.0109362 3.9927092 1 6 C0.34 5.34 -0.32 4.68 -1 4 C-0.625 1.875 -0.625 1.875 0 0 Z " fill="#ADD3EA" transform="translate(113,49)"/>
<path d="M0 0 C1.75 0.125 1.75 0.125 4 1 C8 6.22222222 8 6.22222222 8 9 C7.34 9 6.68 9 6 9 C5.731875 8.360625 5.46375 7.72125 5.1875 7.0625 C4.11332248 4.66868314 4.11332248 4.66868314 1 4 C0.3125 1.9375 0.3125 1.9375 0 0 Z " fill="#C6966F" transform="translate(62,23)"/>
<path d="M0 0 C1.32 0 2.64 0 4 0 C4 1.65 4 3.3 4 5 C2.68 5 1.36 5 0 5 C-0.5625 3.0625 -0.5625 3.0625 -1 1 C-0.67 0.67 -0.34 0.34 0 0 Z " fill="#AFDDEB" transform="translate(178,180)"/>
<path d="M0 0 C1.65 0 3.3 0 5 0 C5 2.83967231 4.59732819 5.23735711 4 8 C3.67 8 3.34 8 3 8 C2.87625 7.195625 2.7525 6.39125 2.625 5.5625 C2.315625 4.2940625 2.315625 4.2940625 2 3 C1.34 2.67 0.68 2.34 0 2 C0 1.34 0 0.68 0 0 Z " fill="#27A0D0" transform="translate(169,177)"/>
<path d="M0 0 C1.98 0.495 1.98 0.495 4 1 C4 2.32 4 3.64 4 5 C2.35 4.67 0.7 4.34 -1 4 C-0.67 2.68 -0.34 1.36 0 0 Z " fill="#AFCCD4" transform="translate(162,129)"/>
<path d="M0 0 C0.99 0 1.98 0 3 0 C3.33 1.98 3.66 3.96 4 6 C2.68 5.67 1.36 5.34 0 5 C-0.33 5.66 -0.66 6.32 -1 7 C-0.67 4.69 -0.34 2.38 0 0 Z " fill="#BECED6" transform="translate(43,77)"/>
<path d="M0 0 C1.98 0 3.96 0 6 0 C6.33 1.65 6.66 3.3 7 5 C6.67 4.01 6.34 3.02 6 2 C5.34 2 4.68 2 4 2 C3.67 2.99 3.34 3.98 3 5 C3 4.01 3 3.02 3 2 C2.34 2 1.68 2 1 2 C0.67 2.99 0.34 3.98 0 5 C0 3.35 0 1.7 0 0 Z " fill="#CCD8DD" transform="translate(48,53)"/>
<path d="M0 0 C2.475 0.495 2.475 0.495 5 1 C5 2.65 5 4.3 5 6 C4.34 6 3.68 6 3 6 C3 4.68 3 3.36 3 2 C2.34 2 1.68 2 1 2 C0.67 3.32 0.34 4.64 0 6 C0 4.02 0 2.04 0 0 Z " fill="#B9D9E9" transform="translate(147,154)"/>
<path d="M0 0 C-0.33 0.66 -0.66 1.32 -1 2 C-3.06640625 2.4140625 -3.06640625 2.4140625 -5.5625 2.625 C-6.38878906 2.69976562 -7.21507813 2.77453125 -8.06640625 2.8515625 C-9.02353516 2.92503906 -9.02353516 2.92503906 -10 3 C-10.33 2.34 -10.66 1.68 -11 1 C-7.32589215 -0.17571451 -3.83070817 -0.07366746 0 0 Z " fill="#ABCEDB" transform="translate(130,67)"/>
<path d="M0 0 C1.32 0 2.64 0 4 0 C4 1.65 4 3.3 4 5 C2.68 5 1.36 5 0 5 C0 3.35 0 1.7 0 0 Z " fill="#B5CFDA" transform="translate(149,129)"/>
<path d="M0 0 C0.66 0.99 1.32 1.98 2 3 C1.67 3.66 1.34 4.32 1 5 C1.99 5.33 2.98 5.66 4 6 C1.25 7.1875 1.25 7.1875 -2 8 C-4.375 6.625 -4.375 6.625 -6 5 C-4.02 5 -2.04 5 0 5 C0 3.35 0 1.7 0 0 Z " fill="#093549" transform="translate(75,79)"/>
<path d="M0 0 C0.99 0 1.98 0 3 0 C3 1.65 3 3.3 3 5 C1.68 5.33 0.36 5.66 -1 6 C-1.042721 4.33388095 -1.04063832 2.66617115 -1 1 C-0.67 0.67 -0.34 0.34 0 0 Z " fill="#A9B9C2" transform="translate(73,53)"/>
<path d="M0 0 C1.98 0.495 1.98 0.495 4 1 C4 2.32 4 3.64 4 5 C2.35 4.67 0.7 4.34 -1 4 C-0.67 2.68 -0.34 1.36 0 0 Z " fill="#C9DFEB" transform="translate(134,129)"/>
<path d="M0 0 C1.65 0 3.3 0 5 0 C5 1.65 5 3.3 5 5 C4.67 4.01 4.34 3.02 4 2 C3.34 2 2.68 2 2 2 C2 2.99 2 3.98 2 5 C1.34 5 0.68 5 0 5 C0 3.35 0 1.7 0 0 Z " fill="#BDD5E3" transform="translate(167,129)"/>
<path d="M0 0 C1.98 0.495 1.98 0.495 4 1 C4 2.32 4 3.64 4 5 C2.35 4.67 0.7 4.34 -1 4 C-0.67 2.68 -0.34 1.36 0 0 Z " fill="#CDDAE8" transform="translate(80,104)"/>
<path d="M0 0 C1.65 0.99 3.3 1.98 5 3 C4.67 3.99 4.34 4.98 4 6 C3.34 5.67 2.68 5.34 2 5 C2 5.66 2 6.32 2 7 C1.34 7 0.68 7 0 7 C0 4.69 0 2.38 0 0 Z " fill="#7E4519" transform="translate(112,53)"/>
<path d="M0 0 C2 2 2 2 2.1953125 4.1640625 C2.16050781 5.38222656 2.16050781 5.38222656 2.125 6.625 C2.10695313 7.44226563 2.08890625 8.25953125 2.0703125 9.1015625 C2.04710938 9.72804688 2.02390625 10.35453125 2 11 C1.01 11 0.02 11 -1 11 C-1 10.01 -1 9.02 -1 8 C-0.34 8 0.32 8 1 8 C0.67 5.36 0.34 2.72 0 0 Z " fill="#7F380B" transform="translate(78,22)"/>
<path d="M0 0 C1.32 1.32 2.64 2.64 4 4 C3.01 4.495 3.01 4.495 2 5 C1.67 5.66 1.34 6.32 1 7 C-0.0625 5.1875 -0.0625 5.1875 -1 3 C-0.67 2.01 -0.34 1.02 0 0 Z " fill="#1B4E63" transform="translate(64,74)"/>
<path d="M0 0 C0.99 0.33 1.98 0.66 3 1 C3 1.99 3 2.98 3 4 C2.34 4 1.68 4 1 4 C0.67 4.66 0.34 5.32 0 6 C0 5.34 0 4.68 0 4 C-0.66 3.67 -1.32 3.34 -2 3 C-2 2.34 -2 1.68 -2 1 C-1.34 0.67 -0.68 0.34 0 0 Z " fill="#8B461B" transform="translate(65,12)"/>
<path d="M0 0 C0.99 0.66 1.98 1.32 3 2 C2.34 3.32 1.68 4.64 1 6 C-0.32 5.34 -1.64 4.68 -3 4 C-2.67 3.34 -2.34 2.68 -2 2 C-1.34 2.33 -0.68 2.66 0 3 C0 2.01 0 1.02 0 0 Z " fill="#0B99C6" transform="translate(152,182)"/>
<path d="M0 0 C1.32 0 2.64 0 4 0 C4 1.65 4 3.3 4 5 C2.68 4.67 1.36 4.34 0 4 C0 2.68 0 1.36 0 0 Z " fill="#BBE8ED" transform="translate(206,180)"/>
<path d="M0 0 C0.66 0 1.32 0 2 0 C2 2.31 2 4.62 2 7 C1.34 7 0.68 7 0 7 C-0.38133299 5.0085944 -0.71325582 3.00720923 -1 1 C-0.67 0.67 -0.34 0.34 0 0 Z " fill="#BFE4F7" transform="translate(156,178)"/>
<path d="M0 0 C0.99 0.33 1.98 0.66 3 1 C3 2.98 3 4.96 3 7 C2.01 6.67 1.02 6.34 0 6 C0 4.02 0 2.04 0 0 Z " fill="#B9DAEE" transform="translate(140,153)"/>
<path d="M0 0 C1.32 0 2.64 0 4 0 C4 1.65 4 3.3 4 5 C2.68 5 1.36 5 0 5 C0 3.35 0 1.7 0 0 Z " fill="#C4D9DD" transform="translate(119,129)"/>
<path d="M0 0 C0.99 0.33 1.98 0.66 3 1 C3 2.98 3 4.96 3 7 C2.01 6.67 1.02 6.34 0 6 C0 4.02 0 2.04 0 0 Z " fill="#BAC3CE" transform="translate(68,52)"/>
</svg>
